<svg width="32" height="32" viewBox="0 0 32 32" fill="none" xmlns="http://www.w3.org/2000/svg">
<path d="M22.78 22.38C22.5 22.38 22.28 22.6 22.28 22.88V26.97C22.28 27.52 21.83 27.97 21.28 27.97H5.28003C4.73003 27.97 4.28003 27.52 4.28003 26.97V5.03003C4.28003 4.48003 4.73003 4.03003 5.28003 4.03003H21.28C21.83 4.03003 22.28 4.48003 22.28 5.03003V13.18C22.28 13.46 22.5 13.68 22.78 13.68C23.06 13.68 23.28 13.46 23.28 13.18V5.03003C23.28 3.93003 22.38 3.03003 21.28 3.03003H5.28003C4.18003 3.03003 3.28003 3.93003 3.28003 5.03003V26.97C3.28003 28.07 4.18003 28.97 5.28003 28.97H21.28C22.38 28.97 23.28 28.07 23.28 26.97V22.88C23.28 22.6 23.06 22.38 22.78 22.38Z" fill="#C19C00"/>
<path d="M28.59 12.18C28.39 11.98 28.08 11.98 27.88 12.18L21.35 18.71L18.14 15.5C17.94 15.3 17.63 15.3 17.43 15.5C17.23 15.7 17.23 16.01 17.43 16.21L20.99 19.77C21.09 19.87 21.22 19.92 21.34 19.92C21.46 19.92 21.6 19.87 21.69 19.77L28.57 12.89C28.77 12.69 28.77 12.38 28.57 12.18H28.59Z" fill="#C19C00"/>
<path d="M13.2005 17.469C13.0685 17.469 12.9585 17.425 12.8705 17.337C12.7899 17.249 12.7495 17.1427 12.7495 17.018V15.973L12.9695 16.182C12.4562 16.1747 11.9942 16.1087 11.5835 15.984C11.1729 15.852 10.8282 15.6944 10.5495 15.511C10.4469 15.445 10.3735 15.3607 10.3295 15.258C10.2855 15.1554 10.2709 15.0527 10.2855 14.95C10.3075 14.8474 10.3515 14.7594 10.4175 14.686C10.4835 14.6127 10.5642 14.5687 10.6595 14.554C10.7549 14.5394 10.8649 14.5687 10.9895 14.642C11.2169 14.7887 11.4992 14.9207 11.8365 15.038C12.1812 15.1554 12.5992 15.214 13.0905 15.214C13.4865 15.214 13.8092 15.1627 14.0585 15.06C14.3152 14.9574 14.5022 14.818 14.6195 14.642C14.7442 14.466 14.8065 14.2607 14.8065 14.026C14.8065 13.8354 14.7625 13.6704 14.6745 13.531C14.5939 13.3917 14.4582 13.2744 14.2675 13.179C14.0769 13.0764 13.8239 12.992 13.5085 12.926L12.3755 12.684C11.7082 12.5374 11.2095 12.2954 10.8795 11.958C10.5569 11.6207 10.3955 11.177 10.3955 10.627C10.3955 10.1944 10.4982 9.80936 10.7035 9.47203C10.9162 9.1347 11.2095 8.86703 11.5835 8.66903C11.9649 8.47103 12.4085 8.35736 12.9145 8.32803L12.7495 8.48203V7.48103C12.7495 7.35636 12.7899 7.25003 12.8705 7.16203C12.9585 7.07403 13.0685 7.03003 13.2005 7.03003C13.3252 7.03003 13.4315 7.07403 13.5195 7.16203C13.6075 7.25003 13.6515 7.35636 13.6515 7.48103V8.48203L13.4645 8.32803C13.8019 8.33536 14.1612 8.40503 14.5425 8.53703C14.9239 8.6617 15.2502 8.84136 15.5215 9.07603C15.6095 9.14936 15.6645 9.2337 15.6865 9.32903C15.7159 9.42436 15.7159 9.51603 15.6865 9.60403C15.6645 9.69203 15.6205 9.76536 15.5545 9.82403C15.4885 9.8827 15.4042 9.9157 15.3015 9.92303C15.1989 9.93036 15.0889 9.8937 14.9715 9.81303C14.7369 9.6517 14.4765 9.52336 14.1905 9.42803C13.9119 9.3327 13.5782 9.28503 13.1895 9.28503C12.6762 9.28503 12.2692 9.40603 11.9685 9.64803C11.6679 9.89003 11.5175 10.2054 11.5175 10.594C11.5175 10.8874 11.6092 11.1257 11.7925 11.309C11.9759 11.485 12.2839 11.6207 12.7165 11.716L13.8715 11.958C14.5755 12.112 15.0962 12.3504 15.4335 12.673C15.7709 12.9957 15.9395 13.4247 15.9395 13.96C15.9395 14.378 15.8332 14.7484 15.6205 15.071C15.4079 15.3864 15.1145 15.6394 14.7405 15.83C14.3739 16.0134 13.9485 16.127 13.4645 16.171L13.6515 15.962V17.018C13.6515 17.1427 13.6075 17.249 13.5195 17.337C13.4389 17.425 13.3325 17.469 13.2005 17.469Z" fill="#C19C00"/>
</svg>
