<svg width="32" height="32" viewBox="0 0 32 32" fill="none" xmlns="http://www.w3.org/2000/svg">
<path d="M16.1009 22.264C15.9661 22.264 15.8538 22.2153 15.764 22.1179C15.6816 22.0205 15.6405 21.9028 15.6405 21.7648V20.608L15.8651 20.8394C15.341 20.8313 14.8694 20.7582 14.4501 20.6202C14.0309 20.4741 13.679 20.2995 13.3945 20.0966C13.2897 20.0236 13.2148 19.9302 13.1699 19.8166C13.125 19.7029 13.11 19.5893 13.125 19.4756C13.1475 19.362 13.1924 19.2646 13.2598 19.1834C13.3271 19.1022 13.4095 19.0535 13.5068 19.0373C13.6041 19.021 13.7164 19.0535 13.8437 19.1347C14.0758 19.297 14.364 19.4432 14.7084 19.573C15.0603 19.7029 15.487 19.7679 15.9886 19.7679C16.3929 19.7679 16.7223 19.711 16.9768 19.5974C17.2388 19.4837 17.4297 19.3295 17.5495 19.1347C17.6768 18.9399 17.7404 18.7126 17.7404 18.4528C17.7404 18.2417 17.6955 18.0591 17.6057 17.9049C17.5233 17.7506 17.3848 17.6207 17.1902 17.5152C16.9955 17.4016 16.7372 17.3082 16.4153 17.2352L15.2586 16.9673C14.5774 16.8049 14.0683 16.537 13.7314 16.1636C13.402 15.7902 13.2373 15.2991 13.2373 14.6903C13.2373 14.2114 13.3421 13.7852 13.5517 13.4118C13.7688 13.0384 14.0683 12.7421 14.4501 12.5229C14.8394 12.3037 15.2923 12.1779 15.8089 12.1454L15.6405 12.3159V11.2079C15.6405 11.0698 15.6816 10.9521 15.764 10.8547C15.8538 10.7573 15.9661 10.7086 16.1009 10.7086C16.2282 10.7086 16.3367 10.7573 16.4265 10.8547C16.5164 10.9521 16.5613 11.0698 16.5613 11.2079V12.3159L16.3704 12.1454C16.7148 12.1535 17.0816 12.2307 17.4709 12.3768C17.8602 12.5148 18.1934 12.7137 18.4704 12.9734C18.5602 13.0546 18.6163 13.148 18.6388 13.2535C18.6687 13.359 18.6687 13.4605 18.6388 13.5579C18.6163 13.6553 18.5714 13.7365 18.504 13.8014C18.4367 13.8664 18.3506 13.9029 18.2458 13.911C18.1409 13.9191 18.0286 13.8785 17.9089 13.7892C17.6693 13.6107 17.4035 13.4686 17.1116 13.3631C16.8271 13.2575 16.4864 13.2048 16.0896 13.2048C15.5656 13.2048 15.1501 13.3387 14.8431 13.6066C14.5362 13.8745 14.3827 14.2235 14.3827 14.6538C14.3827 14.9785 14.4763 15.2423 14.6635 15.4452C14.8506 15.6401 15.1651 15.7902 15.6068 15.8958L16.7859 16.1636C17.5046 16.3341 18.0361 16.5979 18.3805 16.9551C18.7249 17.3123 18.8971 17.7872 18.8971 18.3797C18.8971 18.8424 18.7885 19.2524 18.5714 19.6096C18.3543 19.9586 18.0549 20.2387 17.673 20.4497C17.2987 20.6527 16.8645 20.7785 16.3704 20.8272L16.5613 20.5958V21.7648C16.5613 21.9028 16.5164 22.0205 16.4265 22.1179C16.3442 22.2153 16.2356 22.264 16.1009 22.264Z" fill="#C19C00"/>
<path d="M15.9987 3.97758C13.0328 3.97758 10.221 5.00794 7.97733 6.88569V3.48648C7.97733 3.21685 7.76548 3.005 7.49586 3.005C7.22623 3.005 7.01438 3.21685 7.01438 3.48648V7.98345C7.01438 8.07012 7.04327 8.14715 7.09142 8.22419C7.10105 8.24345 7.11068 8.25308 7.12031 8.27234C7.16846 8.33974 7.23586 8.39752 7.3129 8.42641C7.37068 8.44567 7.42845 8.46493 7.49586 8.46493H11.9639C12.2336 8.46493 12.4454 8.25308 12.4454 7.98345C12.4454 7.71383 12.2336 7.50198 11.9639 7.50198H8.74769C10.7988 5.84571 13.3217 4.94053 15.9987 4.94053C22.3638 4.94053 27.5445 10.1212 27.5445 16.4863C27.5445 22.8514 22.3638 28.0321 15.9987 28.0321C9.63361 28.0321 4.45294 22.8514 4.45294 16.4863C4.45294 16.2167 4.24109 16.0048 3.97146 16.0048C3.70184 16.0048 3.48999 16.2167 3.48999 16.4863C3.48999 23.3906 9.10398 28.995 15.9987 28.995C22.8934 28.995 28.5074 23.381 28.5074 16.4863C28.5074 9.59158 22.903 3.97758 15.9987 3.97758Z" fill="#C19C00"/>
</svg>
