<svg width="32" height="32" viewBox="0 0 32 32" fill="none" xmlns="http://www.w3.org/2000/svg">
<path d="M14.375 17.9449C8.115 17.9449 1.375 21.2449 1.375 28.4949C1.375 28.7749 1.595 28.9949 1.875 28.9949H26.875C27.155 28.9949 27.375 28.7749 27.375 28.4949C27.375 21.2549 20.635 17.9549 14.375 17.9549V17.9449ZM14.375 18.9449C17.545 18.9449 20.495 19.8049 22.675 21.3649C24.955 22.9949 26.205 25.2749 26.345 27.9949H2.405C2.715 21.7949 8.745 18.9549 14.375 18.9549V18.9449Z" fill="#C19C00"/>
<path d="M14.375 15.505C17.825 15.505 20.625 12.705 20.625 9.255C20.625 5.805 17.825 3.005 14.375 3.005C10.925 3.005 8.125 5.805 8.125 9.255C8.125 12.705 10.925 15.505 14.375 15.505ZM14.375 4.005C17.265 4.005 19.625 6.355 19.625 9.255C19.625 12.155 17.265 14.505 14.375 14.505C11.485 14.505 9.125 12.155 9.125 9.255C9.125 6.355 11.485 4.005 14.375 4.005Z" fill="#C19C00"/>
<path d="M30.125 14.085H27.625V11.585C27.625 11.305 27.405 11.085 27.125 11.085C26.845 11.085 26.625 11.305 26.625 11.585V14.085H24.125C23.845 14.085 23.625 14.305 23.625 14.585C23.625 14.865 23.845 15.085 24.125 15.085H26.625V17.585C26.625 17.865 26.845 18.085 27.125 18.085C27.405 18.085 27.625 17.865 27.625 17.585V15.085H30.125C30.405 15.085 30.625 14.865 30.625 14.585C30.625 14.305 30.405 14.085 30.125 14.085Z" fill="#C19C00"/>
</svg>
