<svg width="32" height="32" viewBox="0 0 32 32" fill="none" xmlns="http://www.w3.org/2000/svg">
<path d="M28.84 28.125L21.28 20.565C22.98 18.695 24.02 16.225 24.02 13.515C24.02 7.72501 19.31 3.01501 13.52 3.01501C7.73002 3.01501 3.02002 7.72501 3.02002 13.515C3.02002 19.305 7.73002 24.015 13.52 24.015C16.24 24.015 18.7 22.975 20.57 21.275L28.13 28.835C28.23 28.935 28.36 28.985 28.48 28.985C28.6 28.985 28.74 28.935 28.83 28.835C29.03 28.635 29.03 28.325 28.83 28.125H28.84ZM4.02002 13.515C4.02002 8.27501 8.28002 4.01501 13.52 4.01501C18.76 4.01501 23.02 8.27501 23.02 13.515C23.02 18.755 18.76 23.015 13.52 23.015C8.28002 23.015 4.02002 18.755 4.02002 13.515V13.515Z" fill="#C19C00"/>
<path d="M19.33 9.16501C19.13 8.96501 18.82 8.96501 18.62 9.16501L12.09 15.695L8.88002 12.485C8.68002 12.285 8.37002 12.285 8.17002 12.485C7.97002 12.685 7.97002 12.995 8.17002 13.195L11.73 16.755C11.83 16.855 11.96 16.905 12.08 16.905C12.2 16.905 12.34 16.855 12.43 16.755L19.31 9.87501C19.51 9.67501 19.51 9.36501 19.31 9.16501H19.33Z" fill="#C19C00"/>
</svg>
