<svg width="32" height="32" viewBox="0 0 32 32" fill="none" xmlns="http://www.w3.org/2000/svg">
<g clip-path="url(#clip0_19_17130)">
<path d="M3.20736 22.4096C1.44068 22.4096 0 20.9689 0 19.2022C0 17.4356 1.44068 15.9949 3.20736 15.9949C4.97404 15.9949 6.41472 17.4356 6.41472 19.2022C6.41472 20.9689 4.97404 22.4096 3.20736 22.4096ZM3.20736 17.0465C2.01906 17.0465 1.05159 18.0139 1.05159 19.2022C1.05159 20.3905 2.01906 21.358 3.20736 21.358C4.39566 21.358 5.36313 20.3905 5.36313 19.2022C5.36313 18.0139 4.39566 17.0465 3.20736 17.0465V17.0465Z" fill="#C19C00"/>
<path d="M16.0052 24.8599C12.882 24.8599 10.3477 22.3255 10.3477 19.2023C10.3477 16.0791 12.882 13.5447 16.0052 13.5447C19.1285 13.5447 21.6628 16.0791 21.6628 19.2023C21.6628 22.3255 19.1285 24.8599 16.0052 24.8599V24.8599ZM16.0052 14.5963C13.4604 14.5963 11.3992 16.668 11.3992 19.2023C11.3992 21.7367 13.4709 23.8083 16.0052 23.8083C18.5396 23.8083 20.6112 21.7367 20.6112 19.2023C20.6112 16.668 18.5396 14.5963 16.0052 14.5963V14.5963Z" fill="#C19C00"/>
<path d="M26.4793 13.061C24.7231 13.061 23.293 11.6308 23.293 9.87462C23.293 8.11846 24.7231 6.68829 26.4793 6.68829C28.2355 6.68829 29.6656 8.11846 29.6656 9.87462C29.6656 11.6308 28.2355 13.061 26.4793 13.061ZM26.4793 7.7504C25.3015 7.7504 24.3446 8.70735 24.3446 9.88514C24.3446 11.0629 25.3015 12.0199 26.4793 12.0199C27.6571 12.0199 28.614 11.0629 28.614 9.88514C28.614 8.70735 27.6571 7.7504 26.4793 7.7504V7.7504Z" fill="#C19C00"/>
<path d="M8.37082 13.6288C5.84699 13.6288 3.79639 11.5782 3.79639 9.05441C3.79639 6.53059 5.85751 4.47998 8.37082 4.47998C10.8841 4.47998 12.9453 6.53059 12.9453 9.05441C12.9453 11.5782 10.8946 13.6288 8.37082 13.6288V13.6288ZM8.37082 5.53157C6.42537 5.53157 4.84798 7.10896 4.84798 9.05441C4.84798 10.9999 6.42537 12.5773 8.37082 12.5773C10.3163 12.5773 11.8937 10.9999 11.8937 9.05441C11.8937 7.10896 10.3163 5.53157 8.37082 5.53157V5.53157Z" fill="#C19C00"/>
<path d="M29.7392 27.5204C28.4878 27.5204 27.4783 26.5109 27.4783 25.2595C27.4783 24.0081 28.4878 22.9985 29.7392 22.9985C30.9906 22.9985 32.0001 24.0081 32.0001 25.2595C32.0001 26.5109 30.9906 27.5204 29.7392 27.5204ZM29.7392 24.0501C29.0767 24.0501 28.5299 24.597 28.5299 25.2595C28.5299 25.922 29.0767 26.4688 29.7392 26.4688C30.4017 26.4688 30.9485 25.922 30.9485 25.2595C30.9485 24.597 30.4017 24.0501 29.7392 24.0501Z" fill="#C19C00"/>
<path d="M10.863 18.6765H5.87842V19.728H10.863V18.6765Z" fill="#C19C00"/>
<path d="M24.2704 11.4206L19.8237 15.8673L20.5673 16.6109L25.014 12.1642L24.2704 11.4206Z" fill="#C19C00"/>
<path d="M11.1769 11.9362L10.4333 12.6797L12.9467 15.1931L13.6903 14.4495L11.1769 11.9362Z" fill="#C19C00"/>
<path d="M21.0268 20.5548L20.5601 21.4971L27.882 25.1238L28.3487 24.1815L21.0268 20.5548Z" fill="#C19C00"/>
</g>
<defs>
<clipPath id="clip0_19_17130">
<rect width="32" height="32" fill="white"/>
</clipPath>
</defs>
</svg>
