<svg width="281" height="107" viewBox="0 0 281 107" fill="none" xmlns="http://www.w3.org/2000/svg">
<path d="M236.68 47.5697C236.409 49.2609 236.251 50.9751 235.846 52.6357C233.909 60.6019 229.029 66.2571 221.429 69.7123C220.874 69.9648 220.248 70.0681 219.653 70.2441L219.26 69.873C219.571 69.2646 219.823 68.618 220.201 68.0478C223.223 63.4678 224.632 58.574 223.365 53.1407C222.503 49.4446 219.894 46.9269 217.131 44.547C215.808 43.4067 214.269 42.5037 212.986 41.3291C211.809 40.2539 210.652 39.0678 209.825 37.7324C208.645 35.8193 209.03 33.6115 210.435 32.2532C211.77 30.9676 214.013 30.5505 215.918 31.5951C219.177 33.3781 221.606 35.8805 222.082 39.7067C222.263 41.1607 222.31 42.63 222.495 44.084C222.546 44.4857 222.818 45.1362 223.074 45.1745C223.503 45.2433 224.172 45.052 224.436 44.7306C226.404 42.3622 228.131 39.9861 226.726 36.5922C226.041 34.9354 226.045 33.0146 225.711 31.2163C225.573 30.474 225.313 29.747 225.207 29.0009C225.128 28.4384 225.199 27.853 225.207 27.2791C225.719 27.4627 226.321 27.5354 226.73 27.8492C231.477 31.4879 234.602 36.156 235.881 41.926C236.24 43.533 236.424 45.1783 236.688 46.8083V47.5735L236.68 47.5697Z" fill="#969696"/>
<path d="M45 50.2481C46.3736 49.7048 47.7512 49.1614 49.5539 48.4459C49.6011 47.6577 49.668 46.3453 49.7586 45.0367C50.1128 39.8751 53.2852 36.619 58.1539 36.3817C59.5787 36.3128 60.917 36.485 60.9721 38.2222C61.0193 39.7603 59.9448 40.2118 58.4963 40.2769C56.3709 40.3725 54.9383 41.4592 54.4817 43.5521C54.1078 45.2586 54.1038 47.0417 53.907 49.1079C55.2767 49.1079 56.2962 49.1002 57.3195 49.1079C58.5829 49.1232 59.504 49.8616 59.2599 50.9598C59.0946 51.7021 58.0909 52.5017 57.2762 52.804C56.4221 53.1216 55.3476 52.8767 54.0605 52.8767C54.0605 53.6726 54.0605 54.3422 54.0605 55.0156C54.0605 59.6645 54.0409 64.3134 54.0723 68.9623C54.0802 70.4813 53.7063 71.7019 51.8918 71.7249C50.0695 71.7478 49.6326 70.4928 49.6287 69.0044C49.6208 64.4818 49.6247 59.9591 49.6208 55.4365C49.6208 54.6827 49.6208 53.9251 49.6208 53.4698C47.9087 52.8423 46.4563 52.3104 45.0039 51.7786V50.2481H45Z" fill="#969696"/>
<path d="M186.8 41.6543C188.194 31.1818 203.882 19.5653 211.687 23.338C211.022 23.7972 210.522 24.2257 209.952 24.5241C203.213 28.0787 201.143 34.6637 205.177 41.0077C206.756 43.4871 209.196 45.4614 211.294 47.6156C212.589 48.9471 214.198 50.0376 215.289 51.5031C217.131 53.9825 216.485 57.0626 214.151 58.3406C211.774 59.6415 209.137 58.7156 207.755 55.8076C205.65 51.3768 202.887 47.52 198.604 44.8416C195.511 42.9055 192.141 41.792 188.418 41.8303C187.918 41.8341 187.414 41.727 186.8 41.6581V41.6543Z" fill="#969696"/>
<path d="M108.625 51.4113C110.852 49.1423 113.576 48.4995 116.583 48.6181C120.688 48.7826 123.617 51.6026 123.66 55.5857C123.711 60.1122 123.66 64.6425 123.68 69.1689C123.687 70.6726 123.101 71.7057 121.464 71.721C119.787 71.7364 119.267 70.665 119.275 69.1728C119.303 65.2202 119.303 61.2639 119.275 57.3114C119.252 53.5387 116.705 51.7365 113.033 52.8423C111.179 53.3971 110.195 54.5373 110.203 56.4772C110.226 60.5598 110.199 64.6425 110.215 68.7213C110.219 70.2479 109.967 71.5986 108.034 71.7402C106.503 71.8511 105.669 70.7568 105.661 68.6945C105.645 64.6769 105.661 60.6593 105.653 56.6418C105.645 53.9825 104.212 52.6318 101.359 52.563C98.5603 52.4941 96.6317 54.0208 96.5884 56.5384C96.5176 60.6823 96.5924 64.83 96.5373 68.9738C96.5294 69.6893 96.4074 70.6497 95.9351 71.0514C95.4037 71.5068 94.3056 71.7708 93.664 71.545C93.0461 71.3269 92.2982 70.3857 92.2904 69.7543C92.192 63.3798 92.1841 56.9976 92.2982 50.6231C92.31 49.9649 93.1327 49.0199 93.8096 48.7367C95.2069 48.1551 96.1437 49.0313 96.6868 50.271C102.111 47.6807 104.724 47.9179 108.621 51.4151L108.625 51.4113Z" fill="#969696"/>
<path d="M174.001 52.9188C174.162 54.193 174.426 55.2643 174.406 56.3319C174.327 60.4145 171.151 63.3913 166.833 63.6171C165.83 63.6706 164.842 63.9691 163.846 64.1566L163.806 64.8491C164.275 65.117 164.72 65.446 165.216 65.6373C166.979 66.3146 168.774 66.9153 170.533 67.5964C174.63 69.1804 176.374 71.8091 176.051 75.8305C175.799 78.9871 173.202 81.5278 169.222 82.2127C166.487 82.6833 163.783 82.515 161.177 81.2829C156.32 78.9833 154.884 71.6484 160.819 67.8183C159.363 65.886 158.528 63.8619 161.287 62.0751C159.174 60.0395 158.06 57.7552 158.438 54.9697C159.009 50.7494 162.504 48.3312 167.412 48.6143C169.73 48.7482 172.072 48.5952 174.382 48.7865C175.111 48.8477 176.193 49.502 176.358 50.0874C176.535 50.7149 175.929 51.6485 175.465 52.3143C175.225 52.6587 174.544 52.7084 173.993 52.915L174.001 52.9188ZM166.015 78.7805C167.176 78.639 167.845 78.639 168.463 78.4706C170.254 77.9732 171.828 77.0893 171.922 75.0805C172.017 73.0794 170.58 72.0387 168.805 71.415C167.947 71.1127 167.073 70.864 166.2 70.6153C164.047 69.9993 162.248 70.7683 161.358 72.6776C160.485 74.5449 161.008 76.6302 162.842 77.6594C163.928 78.2678 165.235 78.5165 166.018 78.7805H166.015ZM166.424 59.7411C168.545 59.7143 170.305 57.9657 170.246 55.9492C170.187 54.0055 168.451 52.4406 166.373 52.4559C164.2 52.4712 162.512 54.1394 162.571 56.2094C162.626 58.1838 164.358 59.7679 166.424 59.7411V59.7411Z" fill="#969696"/>
<path d="M199.785 60.2882C199.75 67.0071 195.082 71.7861 188.564 71.7746C181.869 71.767 177.189 66.8809 177.244 59.9668C177.295 53.3168 182.018 48.599 188.599 48.6143C195.259 48.6296 199.82 53.3895 199.785 60.2844V60.2882ZM195.345 60.3073C195.404 56.0908 192.366 52.6625 188.564 52.6548C184.797 52.6472 181.79 55.8842 181.692 60.0472C181.597 64.168 184.722 67.7035 188.485 67.7265C192.189 67.7494 195.286 64.3976 195.341 60.3073H195.345Z" fill="#969696"/>
<path d="M141.415 49.7086C143.163 49.3489 145.245 48.4957 147.287 48.5798C152.239 48.775 155.006 51.8207 155.073 56.6609C155.128 60.7397 155.096 64.8147 155.077 68.8934C155.069 70.8334 154.23 71.8588 152.735 71.7364C150.94 71.591 150.59 70.3819 150.598 68.8858C150.621 65.1284 150.645 61.3672 150.59 57.6098C150.539 54.2274 148.913 52.5515 145.835 52.5515C142.682 52.5515 140.927 54.3728 140.915 57.6978C140.899 61.394 140.907 65.0901 140.915 68.7825C140.915 70.3206 140.588 71.6407 138.664 71.7402C137.18 71.8129 136.373 70.7798 136.365 68.8322C136.349 63.0967 136.294 57.3611 136.424 51.6294C136.448 50.6613 137.097 49.1346 137.821 48.8936C138.735 48.5875 140.018 49.3413 141.415 49.7086V49.7086Z" fill="#969696"/>
<path d="M84.7294 69.6166C83.1393 70.3512 81.8129 71.2772 80.3487 71.5795C76.0467 72.4671 72.6106 70.0872 71.8943 65.9663C71.2291 62.1439 74.0669 58.5357 78.2233 57.958C79.5182 57.7781 80.821 57.583 82.1238 57.5715C83.4699 57.56 83.7808 56.9517 83.7021 55.7808C83.5683 53.8218 82.6316 52.6127 80.6203 52.4864C79.2191 52.3984 77.7903 52.8652 76.3773 52.8423C75.539 52.8308 74.3543 52.5821 73.9567 52.0196C73.327 51.1205 73.756 50.1027 74.8699 49.4866C80.9785 46.1119 87.9726 49.9726 88.008 56.7604C88.0238 59.3699 87.8939 61.987 88.0632 64.5851C88.1458 65.8554 88.5709 67.1869 89.181 68.3157C89.7871 69.4367 90.0705 70.5578 88.9605 71.1433C88.2009 71.5412 86.9178 71.2772 85.985 70.9749C85.4103 70.7874 85.0482 69.9724 84.7333 69.6089L84.7294 69.6166ZM83.5132 60.9769C81.7893 61.2103 80.1598 61.3213 78.5893 61.6733C77.0307 62.0215 75.9916 63.1732 76.1372 64.696C76.2317 65.6908 76.9008 67.1984 77.6605 67.4356C78.7625 67.7838 80.3841 67.5351 81.4114 66.9344C83.5329 65.6985 84.017 63.5864 83.5132 60.9769V60.9769Z" fill="#969696"/>
<path d="M67.9268 54.2848C67.9268 59.2475 67.9543 64.214 67.915 69.1766C67.8992 71.1127 66.6791 72.2491 65.1755 71.6063C64.4277 71.2887 63.5776 70.1638 63.5697 69.3947C63.4634 59.2781 63.5028 49.1576 63.491 39.041C63.491 37.6176 64.105 36.6266 65.5928 36.5616C67.2065 36.4927 67.9189 37.5105 67.9228 39.0104C67.9307 44.1031 67.9228 49.1921 67.9228 54.2848H67.9268Z" fill="#969696"/>
<path d="M127.781 60.204C127.781 57.2157 127.781 54.2312 127.781 51.2429C127.781 49.8004 128.257 48.687 129.949 48.6487C131.752 48.6104 132.264 49.7468 132.26 51.285C132.248 57.1966 132.244 63.1043 132.26 69.0159C132.264 70.5579 131.76 71.7325 129.997 71.7172C128.226 71.7019 127.761 70.4966 127.773 68.9738C127.797 66.0505 127.781 63.1273 127.781 60.204Z" fill="#969696"/>
<path d="M130.048 40.6748C131.492 40.8393 132.366 41.5472 132.366 43.0088C132.366 44.4628 131.551 45.251 130.079 45.3237C128.627 45.3964 127.604 44.3633 127.659 42.9399C127.718 41.4592 128.643 40.8278 130.044 40.671L130.048 40.6748Z" fill="#969696"/>
<path d="M83.5131 60.9731C84.0169 63.5826 83.5289 65.6947 81.4113 66.9306C80.3841 67.5313 78.7624 67.78 77.6604 67.4318C76.9007 67.1908 76.2316 65.687 76.1372 64.6922C75.9955 63.1694 77.0346 62.0215 78.5893 61.6695C80.1597 61.3174 81.7892 61.2065 83.5131 60.9731V60.9731Z" fill="white"/>
</svg>
