<svg width="281" height="107" viewBox="0 0 281 107" fill="none" xmlns="http://www.w3.org/2000/svg">
<path d="M90.1562 39.4416C82.8697 39.4416 76.935 45.5157 76.935 53C76.935 60.4881 82.8697 66.5584 90.1562 66.5584C97.4477 66.5584 103.338 60.4881 103.338 53C103.34 45.5157 97.4477 39.4416 90.1562 39.4416ZM145.513 39.4416C138.223 39.4416 132.292 45.5157 132.292 53C132.292 60.4881 138.223 66.5584 145.513 66.5584C152.804 66.5584 158.695 60.4881 158.695 53C158.695 45.5157 152.804 39.4416 145.513 39.4416ZM45 40.1276L45.0392 41.2574C46.2721 41.2574 47.707 41.7142 47.707 43.6382V65.9128H49.8648V46.7857L58.9274 65.9128H59.9867L69.0101 44.7681V65.9128H72.7371V40.1276H68.6178L60.2221 59.9003L50.8848 40.1276H45ZM104.829 40.1276V41.2574C106.058 41.2574 107.536 41.7142 107.536 43.6382V65.9128H109.694V45.0506L127.584 66.5584H128.251V40.1276H126.132L126.093 58.8511L110.518 40.1276H104.829ZM160.225 40.1276V41.2574C161.456 41.2574 162.893 41.7181 162.893 43.6382V65.9128H166.659V54.372C168.422 54.669 169.695 54.749 170.778 54.6948C174.985 54.4843 178.821 51.7862 178.821 47.3507C178.821 42.7731 175.079 40.1276 170.7 40.1276H160.225V40.1276ZM180.626 40.1276V41.2574C181.856 41.2574 183.333 41.7103 183.333 43.6382V65.9128H187.06V53.8474C187.562 53.8784 188.156 53.9074 188.629 53.9281C189.7 54.0082 191.523 53.818 193.533 57.4388C194.314 58.8359 197.848 65.3472 198.162 65.9128H202.556C202.556 65.9128 198.671 58.8905 197.848 57.4791C196.862 55.7863 195.62 53.9536 193.729 53.2421C196.458 52.4622 199.261 50.4116 199.261 46.9471C199.261 42.4406 195.627 40.1276 191.14 40.1276H180.626V40.1276ZM204.047 40.1276V41.2574C205.277 41.2574 206.754 41.7142 206.754 43.6382V65.9128H210.481V40.1276H204.047ZM214.051 40.1276V41.2574C214.896 41.2574 215.837 41.4137 216.405 42.2259L223.781 53.3632L214.718 65.9128H217.386L225.076 55.2597L232.137 65.9128H236.688L227.43 52.0315L236.021 40.1276H233.354L226.135 50.0946L219.505 40.1276H214.051ZM90.117 41.0153C95.1525 41.0153 99.2188 45.0925 99.2188 53.0404C99.2188 60.9856 95.1525 65.025 90.117 65.025C85.0815 65.025 80.9759 60.9843 80.9759 53.0404C80.9759 45.0977 85.0815 41.0153 90.117 41.0153V41.0153ZM145.474 41.0153C150.509 41.0153 154.575 45.0925 154.575 53.0404C154.575 60.9856 150.509 65.025 145.474 65.025C140.43 65.025 136.332 60.9843 136.332 53.0404C136.332 45.0977 140.43 41.0153 145.474 41.0153V41.0153ZM186.746 41.6609H189.531C192.71 41.6609 195.298 42.9199 195.298 46.9875C195.3 50.9569 192.674 52.3947 189.531 52.3947C188.671 52.3947 187.745 52.325 187.06 52.2333V43.1943C187.06 42.0231 186.861 41.8327 186.746 41.6609ZM166.345 41.7013H169.091C172.274 41.7013 174.858 43.3319 174.858 47.3103C174.86 51.6852 172.239 53.1211 169.091 53.1211C168.234 53.1211 167.415 52.9855 166.659 52.7982V43.275C166.659 42.1051 166.525 41.9686 166.345 41.7013Z" fill="#969696"/>
</svg>
