<svg width="281" height="107" viewBox="0 0 281 107" fill="none" xmlns="http://www.w3.org/2000/svg">
<g clip-path="url(#clip0_559_16402)">
<path d="M231.252 27.1833C228.253 27.1833 225.828 29.6027 225.828 32.595C225.828 35.5872 228.253 38.0195 231.252 38.0195C234.251 38.0195 236.688 35.5872 236.688 32.595C236.688 29.6027 234.251 27.1833 231.252 27.1833ZM231.277 28.2648C233.672 28.2648 235.622 30.2055 235.622 32.5993C235.622 34.9931 233.676 36.9167 231.277 36.9167C228.878 36.9167 226.95 34.9888 226.95 32.5993C226.95 30.2097 228.882 28.2648 231.277 28.2648V28.2648Z" fill="#969696"/>
<path fill-rule="evenodd" clip-rule="evenodd" d="M66.4602 27.3714C66.3402 27.3714 66.2117 27.3885 66.0874 27.397C66.0703 27.397 66.0532 27.397 66.036 27.397C65.9803 27.397 65.9289 27.397 65.8775 27.397C65.599 27.397 65.3205 27.397 65.0378 27.4099C64.1509 27.4526 63.3198 27.568 62.5529 27.7433C62.5357 27.7433 62.5186 27.7518 62.5015 27.7561C60.5007 28.0938 58.7613 28.7093 57.4117 29.4873C56.1179 30.0815 54.9954 30.7783 54.07 31.5263C54.0571 31.5349 54.0443 31.5434 54.0314 31.552C50.2955 34.3006 47.4678 38.37 46.1097 43.1491C46.1012 43.1747 46.0926 43.2004 46.084 43.2303C45.3942 45.4916 45.0129 47.9239 45.0129 50.4673C45.0129 57.4392 47.8363 63.6289 52.202 67.5188C52.7889 68.1173 53.4787 68.7115 54.2713 69.2672C55.2224 69.934 56.195 70.4555 57.1032 70.8274C57.1375 70.8402 57.1632 70.8531 57.1975 70.8659C59.4339 71.9474 62.7671 72.6399 66.4859 72.6399C67.0985 72.6399 67.6898 72.6099 68.2767 72.5715C68.2767 72.5715 68.2853 72.5715 68.2896 72.5715C68.8294 72.6057 69.4206 72.5971 70.0247 72.533C70.2132 72.5116 70.3932 72.4817 70.5731 72.4518C79.176 71.9004 86.168 65.5568 87.5689 57.3452C87.5689 57.3452 87.5689 57.3366 87.5689 57.3324C87.6118 57.1956 87.6503 57.046 87.6889 56.9049H76.0356C75.153 59.5723 72.5867 61.6241 69.3821 62.1713C69.3735 62.1713 69.3649 62.1798 69.3564 62.1841C69.3221 62.1926 69.2835 62.1926 69.2492 62.1969C68.6837 62.308 67.9468 62.385 67.1242 62.385C65.946 62.385 64.9135 62.2482 64.3566 62.0387C61.8288 61.3634 59.8323 59.4398 59.0783 56.9989C59.0655 56.9605 59.0526 56.9177 59.0397 56.8793C59.0098 56.7809 58.9841 56.6869 58.9583 56.5843C58.9155 56.4176 58.8769 56.2338 58.8384 56.0371C58.7227 55.4045 58.6413 54.6265 58.6113 53.7716V53.7075H88.2673C88.3272 53.062 88.3615 52.3951 88.3615 51.7069C88.3615 51.0187 88.323 50.4245 88.2673 49.8133C88.2673 49.7962 88.2673 49.7791 88.2673 49.762C88.2116 48.2787 88.0445 46.9279 87.7874 45.8165C87.1919 41.6487 85.8381 38.1178 84.0215 35.8437C84.013 35.8309 84.0044 35.8138 83.9958 35.8053C80.4356 30.7312 74.4118 27.3928 67.5741 27.3928C67.4327 27.3928 67.287 27.4013 67.1457 27.4056C66.9314 27.3714 66.7044 27.3628 66.4644 27.3671L66.4602 27.3714ZM67.0086 37.8272C68.0839 37.8272 69.0179 37.9725 69.5192 38.1862C72.2911 39.0155 74.3776 41.6786 74.6089 44.906H58.6027C58.8812 41.4777 61.5161 38.6992 64.9478 38.0409C64.9564 38.0409 64.9649 38.0323 64.9735 38.0281C65.0035 38.0195 65.0378 38.0195 65.0678 38.0152C65.5819 37.8998 66.2588 37.8272 67.0043 37.8272H67.0086Z" fill="#969696"/>
<path d="M84.5656 28.3716L91.7932 38.7163V38.6778L98.6995 48.9028L90.4008 61.1924V61.2052L87.5561 65.42L83.3489 71.661H98.5539L106.596 59.6492L114.427 71.3404L114.56 71.5413H129.992L122.589 60.8889V60.9145L114.264 48.5822L121.308 38.6094V38.7163L124.422 34.198L128.445 28.3716H113.133L106.694 38.0751L100.105 28.3716H84.5656V28.3716ZM99.9034 28.44L99.2479 28.9316L99.2351 28.906L99.9034 28.44Z" fill="#969696"/>
<path d="M130.943 28.3716L133.389 71.5242H146.041L148.487 28.3716H130.943V28.3716Z" fill="#969696"/>
<path d="M139.692 89.9351C144.204 89.9351 147.862 86.2854 147.862 81.7833C147.862 77.2813 144.204 73.6316 139.692 73.6316C135.179 73.6316 131.521 77.2813 131.521 81.7833C131.521 86.2854 135.179 89.9351 139.692 89.9351Z" fill="#969696"/>
<path d="M157.921 16.0649V28.3332H151.041V37.9853H157.921V61.9832C157.883 62.2653 157.87 62.6073 157.883 62.9834C157.9 63.5306 157.986 63.9965 158.084 64.2616C158.084 64.2701 158.097 64.2701 158.097 64.2744C158.534 67.0957 160.625 69.4809 163.534 70.7932C163.679 70.8573 163.825 70.9343 163.975 70.9941C164.099 71.0454 164.224 71.0967 164.348 71.1395C164.404 71.1608 164.451 71.1737 164.506 71.1908C165.479 71.5285 166.524 71.7465 167.621 71.832C167.63 71.832 167.638 71.832 167.647 71.832C168.761 71.9687 170.003 72.0457 171.31 72.0457C172.308 72.0457 173.263 72.0072 174.155 71.926C174.802 71.926 175.483 71.9004 176.198 71.8448C177.484 71.7465 178.636 71.5669 179.553 71.3361V68.7884C179.553 68.7884 179.536 68.767 179.527 68.7628V60.3887H179.073C178.957 60.4614 178.833 60.517 178.7 60.564V60.5896C177.111 61.1154 174.909 61.2009 172.462 60.7093C172.454 60.7093 172.445 60.7093 172.437 60.7093C171.854 60.7093 171.383 60.222 171.383 59.615C171.383 59.5253 171.391 59.444 171.408 59.3628V37.981H179.587V28.3289H171.408V16.0649H157.926H157.921Z" fill="#969696"/>
<path d="M203.549 27.1192C197.281 27.1192 191.656 29.3548 187.809 32.89C187.65 33.0353 187.492 33.1806 187.342 33.3303C186.943 33.715 186.558 34.1168 186.193 34.5571C186.181 34.5699 186.163 34.5827 186.155 34.5956C186.103 34.6554 186.056 34.7195 186.009 34.7836C185.902 34.9162 185.791 35.0572 185.688 35.1983C185.654 35.241 185.628 35.288 185.594 35.3308C185.465 35.5061 185.345 35.6685 185.221 35.8523C185.174 35.9164 185.131 35.9848 185.088 36.0532C184.93 36.2926 184.771 36.5362 184.621 36.7884C182.487 40.315 181.185 44.9316 181.185 50.0014C181.185 55.0711 182.487 59.6877 184.621 63.2143C184.771 63.4622 184.93 63.7102 185.088 63.9495C185.255 64.1975 185.422 64.4326 185.598 64.6677C185.761 64.8857 185.924 65.0994 186.091 65.3089C186.112 65.3345 186.133 65.3602 186.159 65.3901C186.172 65.4072 186.185 65.4286 186.198 65.4414C186.708 66.0527 187.247 66.6212 187.813 67.1213C187.83 67.1384 187.851 67.147 187.864 67.1598C191.712 70.6693 197.311 72.8793 203.549 72.8793C209.787 72.8793 215.387 70.6693 219.234 67.1598C219.251 67.1427 219.273 67.1342 219.285 67.1213C219.851 66.6212 220.395 66.0527 220.901 65.4414C220.913 65.4243 220.926 65.4029 220.939 65.3901C220.948 65.3815 220.961 65.373 220.965 65.3644C220.978 65.3474 220.991 65.3303 221.003 65.3132C221.17 65.1037 221.338 64.89 221.496 64.672C221.672 64.4369 221.839 64.2017 222.006 63.9538C222.164 63.7187 222.323 63.4665 222.473 63.2186C224.606 59.692 225.909 55.0711 225.909 50.0057C225.909 44.9402 224.611 40.3193 222.473 36.7927C222.323 36.5448 222.164 36.2969 222.006 36.0575C221.719 35.6257 221.415 35.1983 221.085 34.7922C221.046 34.7452 221.003 34.6939 220.965 34.6469C220.943 34.6212 220.922 34.5913 220.896 34.5656C220.528 34.1253 220.147 33.7235 219.748 33.3388C219.675 33.2704 219.607 33.1935 219.534 33.1251C219.452 33.0481 219.362 32.9712 219.281 32.8985C215.434 29.3591 209.808 27.1278 203.541 27.1278L203.549 27.1192ZM203.498 37.7973C206.291 37.7973 208.767 39.1566 210.353 41.2512C210.464 41.3837 210.567 41.5333 210.674 41.6915C210.824 41.9137 210.978 42.1446 211.115 42.4096C211.188 42.5421 211.235 42.6832 211.304 42.8242C211.338 42.9012 211.377 42.9739 211.411 43.0508C211.509 43.2774 211.599 43.5082 211.676 43.7433C211.745 43.9528 211.822 44.1665 211.878 44.3845C211.878 44.3973 211.886 44.4101 211.891 44.423C212.353 46.0046 212.628 47.9239 212.628 49.9971C212.628 52.1814 212.323 54.1905 211.814 55.8234C211.801 55.8705 211.788 55.9218 211.775 55.9688C211.762 56.003 211.745 56.0414 211.736 56.0756C211.659 56.315 211.578 56.5544 211.484 56.781C211.475 56.8023 211.462 56.8152 211.458 56.8323C211.441 56.8665 211.432 56.9049 211.419 56.9391C211.081 57.7342 210.691 58.3882 210.258 58.8713C210.237 58.8969 210.211 58.9226 210.19 58.9525C210.16 58.9867 210.126 59.0166 210.096 59.0465C208.506 60.9487 206.15 62.167 203.506 62.167C200.7 62.167 198.219 60.7949 196.639 58.6875C196.54 58.5635 196.437 58.4267 196.343 58.2856C196.343 58.2771 196.334 58.2771 196.33 58.2728C196.206 58.0847 196.086 57.8881 195.97 57.6744C195.953 57.6402 195.932 57.6145 195.919 57.5803C195.91 57.5675 195.897 57.5547 195.893 57.5418C195.512 56.8237 195.229 56.0457 195.053 55.2207C195.045 55.1865 195.036 55.148 195.028 55.1138C194.638 53.622 194.415 51.8737 194.415 49.9928C194.415 48.112 194.642 46.3679 195.028 44.8718C195.028 44.8633 195.028 44.8504 195.028 44.8462C195.246 43.7604 195.675 42.7473 196.244 41.8454C196.351 41.6744 196.471 41.5119 196.591 41.3538C198.172 39.1993 200.674 37.793 203.515 37.793L203.498 37.7973Z" fill="#969696"/>
<path d="M68.932 16.0649L62.0386 24.798H70.6029L82.0506 16.0649H68.9277H68.932Z" fill="#969696"/>
<path d="M229.859 29.684V29.6968H229.045V35.4547H230.356V32.9498H231.106L232.336 35.4547H233.779L232.524 32.8942C232.623 32.8643 232.717 32.8258 232.82 32.7617C233.047 32.6164 233.218 32.3941 233.329 32.1633C233.329 32.1547 233.338 32.1547 233.342 32.1504C233.522 31.8982 233.608 31.5007 233.557 31.0689C233.497 30.5517 233.257 30.1413 232.957 29.9875C232.901 29.9404 232.845 29.9105 232.781 29.8806C232.76 29.872 232.747 29.8635 232.73 29.8549C232.708 29.8464 232.687 29.8336 232.661 29.8293C232.507 29.7524 232.361 29.7096 232.233 29.6968V29.684H229.868H229.859ZM230.352 30.8809H231.877C231.877 30.8809 231.886 30.8894 231.89 30.8937C232.066 30.9407 232.198 31.1801 232.198 31.4665C232.198 31.7529 232.074 31.9837 231.903 32.0393H230.352V30.8809V30.8809Z" fill="#969696"/>
</g>
<defs>
<clipPath id="clip0_559_16402">
<rect width="191.688" height="73.8701" fill="white" transform="translate(45 16.0649)"/>
</clipPath>
</defs>
</svg>
