<svg width="282" height="107" viewBox="0 0 282 107" fill="none" xmlns="http://www.w3.org/2000/svg">
<path d="M76.0346 44.8172C75.5597 44.831 75.0848 44.9137 74.6379 45.0516C74.1769 45.1481 73.744 45.3136 73.3389 45.5342C72.878 45.7823 72.4729 46.1408 72.1796 46.582C71.8444 47.0508 71.5511 47.5609 71.2997 48.0848C70.3499 50.1391 68.9252 53.324 66.9977 57.736C65.0702 62.1479 63.1706 66.4771 61.1593 71.2338H59.3715C57.3183 66.229 55.3349 61.4172 53.4074 56.826C51.4799 52.2348 50.181 49.0913 49.5245 47.423C49.3569 47.037 49.1334 46.6785 48.8401 46.3752C48.5188 46.0305 48.1277 45.741 47.7087 45.5204C47.3037 45.286 46.8707 45.1205 46.4237 45.024C45.9907 44.9137 45.5577 44.8448 45.1248 44.8172V43.4385H57.6954V44.8172C56.7875 44.8586 55.8797 44.9551 54.9857 45.1067C54.2594 45.2446 53.8823 45.4928 53.8823 45.865C53.8823 46.0305 53.9242 46.1959 53.9801 46.3614C53.9801 46.5544 54.0779 46.7199 54.1198 46.8302C54.6505 48.0848 55.5165 50.1529 56.6898 53.0069C57.863 55.8609 59.5531 59.9006 61.746 65.2087C62.8214 62.8235 64.0785 59.9971 65.4892 56.7433C66.8999 53.4895 67.8497 51.2283 68.2827 50.0564C68.6179 49.2705 68.8973 48.4571 69.0928 47.6298C69.1626 47.2576 69.2045 46.8853 69.2045 46.5131C69.2045 46.2373 69.0928 45.9616 68.8693 45.7961C68.5062 45.5617 68.1151 45.3825 67.6961 45.2722C67.2351 45.1481 66.7742 45.0516 66.2993 44.9827L64.9026 44.831V43.4523H76.1882L76.0346 44.8172V44.8172Z" fill="#969696"/>
<path d="M115.884 62.7959L115.311 70.8753H90.1697V69.4966C90.5887 69.4966 91.1753 69.4138 91.8737 69.3173C92.3486 69.2897 92.8235 69.207 93.2704 69.0692C93.6615 68.9313 93.9967 68.6555 94.2202 68.3108C94.4158 67.9524 94.4996 67.5388 94.4856 67.1251V47.423C94.4856 47.037 94.4158 46.6509 94.2621 46.2925C94.0386 45.9202 93.6895 45.6307 93.2704 45.4928C92.7816 45.286 92.2648 45.1481 91.734 45.0516C91.2172 44.9413 90.7004 44.8724 90.1697 44.8172V43.4385H113.565V50.0564H111.987C111.596 48.8983 110.967 47.8366 110.143 46.9405C109.501 46.0305 108.537 45.3825 107.433 45.1343C107 45.1343 106.47 45.0378 105.855 45.0102C105.24 44.9827 104.542 45.0102 103.76 45.0102H98.9971V55.916H102.391C103.201 55.9436 104.011 55.8609 104.794 55.6403C105.338 55.4473 105.813 55.1301 106.19 54.7027C106.539 54.2478 106.805 53.7376 106.986 53.1999C107.196 52.6346 107.336 52.0418 107.419 51.4351H109.026V62.1755H107.391C107.322 61.4999 107.168 60.8519 106.931 60.2177C106.763 59.68 106.512 59.1698 106.162 58.7286C105.771 58.2599 105.24 57.9152 104.654 57.736C103.928 57.5705 103.173 57.4878 102.419 57.5016H98.9971V65.774C98.9831 66.4358 99.039 67.0838 99.1786 67.7318C99.2904 68.173 99.5558 68.5452 99.9329 68.8072C100.394 69.0829 100.911 69.2484 101.441 69.2898C102.098 69.3587 102.992 69.3863 104.235 69.3863H106.106C106.735 69.3725 107.364 69.3173 107.978 69.2346C108.537 69.1795 109.109 69.0829 109.654 68.9589C110.115 68.8761 110.534 68.6831 110.897 68.4074C111.707 67.5801 112.392 66.6564 112.951 65.6499C113.495 64.7675 113.97 63.8437 114.347 62.8924L115.884 62.7959V62.7959ZM106.917 38.5026L103.997 39.7848L99.5977 41.7426L98.9272 40.9843L102.112 38.2269C102.852 37.5237 103.662 36.7516 104.458 35.9795C104.835 35.6073 105.254 35.3039 105.715 35.042C106.093 34.8627 106.498 34.7662 106.917 34.7662C107.419 34.7662 107.908 34.9179 108.313 35.2074C108.676 35.4694 108.886 35.8692 108.886 36.3104C108.914 36.8068 108.704 37.2893 108.341 37.6202C107.908 37.9787 107.433 38.282 106.917 38.5026V38.5026Z" fill="#969696"/>
<path d="M156.487 62.727L155.844 70.8753H132.1V69.4966L133.594 69.3587C134.069 69.3311 134.544 69.2484 134.991 69.0967C135.382 68.9726 135.703 68.7107 135.913 68.366C136.122 67.98 136.22 67.5525 136.206 67.1251V47.5057C136.206 47.1059 136.108 46.7061 135.913 46.3476C135.703 45.9616 135.354 45.672 134.935 45.5342C134.488 45.3411 134.013 45.1895 133.538 45.0792C133.063 44.9551 132.561 44.8586 132.072 44.8172V43.4385H144.88V44.8172C144.363 44.8448 143.846 44.9137 143.329 45.0102C142.855 45.093 142.394 45.2033 141.933 45.3273C141.5 45.4376 141.137 45.7272 140.941 46.1132C140.759 46.4855 140.676 46.8991 140.676 47.3127V65.7326C140.676 66.3944 140.718 67.0562 140.829 67.718C140.885 68.1592 141.123 68.5452 141.472 68.821C141.891 69.0692 142.38 69.2208 142.869 69.2622C143.79 69.3449 144.726 69.3863 145.662 69.3725H147.31C147.869 69.3725 148.428 69.2897 148.93 69.2208C149.405 69.1519 149.866 69.0416 150.327 68.9037C150.69 68.821 151.012 68.6417 151.277 68.3798C152.045 67.525 152.73 66.6012 153.316 65.6223C153.945 64.6986 154.475 63.7197 154.922 62.6994L156.487 62.727V62.727Z" fill="#969696"/>
<path d="M197.216 62.7959L196.643 70.8753H171.502V69.4966C171.935 69.4966 172.507 69.4138 173.22 69.3173C173.695 69.2897 174.156 69.207 174.616 69.0692C175.008 68.9313 175.343 68.6555 175.566 68.3108C175.762 67.9524 175.846 67.5388 175.832 67.1251V47.423C175.832 47.037 175.762 46.6509 175.608 46.2925C175.385 45.9202 175.035 45.6307 174.616 45.4928C174.114 45.286 173.597 45.1481 173.066 45.0516C172.549 44.9413 172.032 44.8724 171.516 44.8172V43.4385H195.009V50.0564H193.319C192.942 48.8983 192.313 47.8366 191.475 46.9405C190.833 46.0305 189.869 45.3825 188.779 45.1343C188.332 45.0792 187.802 45.0378 187.187 45.0102C186.573 44.9827 185.874 44.9827 185.092 45.0102H180.329V55.916H183.737C184.547 55.9574 185.371 55.8609 186.154 55.6403C186.698 55.4473 187.173 55.1301 187.55 54.7027C187.899 54.2478 188.179 53.7376 188.346 53.1999C188.556 52.6346 188.696 52.0418 188.779 51.4351H190.386V62.1755H188.765C188.696 61.4999 188.542 60.8519 188.304 60.2177C188.137 59.68 187.871 59.1836 187.536 58.7286C187.145 58.2599 186.614 57.9152 186.028 57.736C185.288 57.5567 184.533 57.4878 183.779 57.5016H180.329V65.774C180.315 66.4358 180.371 67.0838 180.511 67.7318C180.622 68.173 180.888 68.5452 181.265 68.8072C181.726 69.0829 182.243 69.2484 182.787 69.2897C183.723 69.3725 184.645 69.4 185.581 69.3863H187.438C188.095 69.3863 188.737 69.3587 189.394 69.3035C189.953 69.2484 190.511 69.1519 191.07 69.0278C191.517 68.9451 191.936 68.752 192.299 68.4763C193.109 67.6491 193.794 66.7253 194.352 65.7188C194.897 64.8364 195.372 63.9127 195.749 62.9614L197.216 62.7959V62.7959Z" fill="#969696"/>
<path d="M237.344 62.3409L236.325 70.9029H211.951V70.1997L231.045 44.9689H222.008C221.505 44.9964 221.002 45.0516 220.499 45.1343C219.242 45.4928 218.139 46.2235 217.329 47.23C216.211 48.3743 215.304 49.6979 214.661 51.1594H213.167L214.13 43.4385H236.869V44.1141L217.762 69.3449H224.969C226.268 69.3449 227.553 69.2622 228.838 69.1105C229.788 69.1105 230.724 68.821 231.52 68.3246C232.497 67.456 233.377 66.4771 234.104 65.3879C234.774 64.4366 235.361 63.4163 235.836 62.3409H237.344V62.3409Z" fill="#969696"/>
</svg>
