<svg width="282" height="107" viewBox="0 0 282 107" fill="none" xmlns="http://www.w3.org/2000/svg">
<path d="M84.2459 26.7731C84.4825 24.7821 84.1856 21.8717 85.7821 20.5045C86.2494 18.3792 89.65 18.8718 89.1188 17.5195C88.7909 16.6747 87.1939 17.0777 86.5472 17.2329C86.0549 17.3493 81.3948 18.8001 79.6004 18.9941C78.8413 18.7852 78.0825 18.5792 77.3235 18.3703C74.3997 18.7583 72.7083 21.0478 71.0809 22.8686C69.7146 24.394 67.8687 28.1253 69.3382 30.3581C69.2522 30.8446 69.1747 31.3342 69.0895 31.8208L72.4202 36.6027C73.5647 37.4117 73.7166 38.0146 74.9523 38.8116C75.2071 39.1878 75.4593 39.5639 75.714 39.937C76.7251 40.5907 79.7035 40.5997 80.2045 40.1728C84.9986 40.6146 84.4794 31.0715 86.0006 29.0685C85.8061 28.1671 85.0046 27.2328 84.2456 26.7731L84.2459 26.7731ZM63.5784 55.4233C64.5925 55.1666 66.3262 55.0323 67.2371 54.5875C68.6823 53.8771 73.6586 50.4592 72.0769 47.6712C71.5854 41.8026 64.3862 46.7638 61.3228 44.7071C58.2198 44.3101 54.7312 38.543 53.8021 36.0714C53.4346 35.0953 53.5871 35.4296 53.0888 34.6535C53.0948 34.5731 52.7702 34.9221 52.7762 34.8416C51.8653 35.8804 52.0265 36.7878 51.8835 39.3191C51.4764 39.2954 51.0703 39.2684 50.6661 39.2447C50.58 40.1641 50.4932 40.6626 50.056 41.1312C49.9647 41.2864 49.8709 41.4387 49.7823 41.5939C49.0112 41.3401 49.3966 41.7014 49.0808 41.0715C46.2267 41.2059 46.4394 44.0296 45.1248 45.6386C45.185 50.9041 55.7937 57.4085 63.5784 55.4234V55.4233ZM98.816 39.4207C94.1858 40.1103 91.3561 41.558 89.6073 42.752C88.3868 43.5848 88.0316 44.1491 87.7674 44.5013C87.5032 44.8565 87.3243 45.6355 87.4552 46.4564C87.5886 47.2743 87.9285 48.14 88.6484 48.6206C94.3321 48.2087 104.203 47.8564 106.122 52.5548C106.225 53.2056 106.373 53.5966 106.388 53.7578C108.267 53.2981 106.893 53.4593 109.661 53.8891C110.299 53.9876 111.862 53.6384 112.904 53.3936C113.375 53.2832 113.641 52.8593 113.641 52.8593C113.641 52.8593 113.55 52.4115 113.581 52.1727C113.581 52.1727 114.547 52.2413 114.948 51.9399C117.577 51.519 116.195 50.3041 117.437 48.9369C116.688 40.1639 107.533 38.1222 98.8162 39.4207L98.816 39.4207ZM88.6694 58.5099C87.3516 59.4979 86.7993 59.2532 86.025 60.7845C85.9476 60.7845 86.1403 61.0174 86.0594 61.0174C86.8426 62.5606 88.6461 63.1814 89.9729 64.268C90.386 64.6083 91.5033 66.5128 92.0347 66.6531C92.6294 67.3516 93.0212 69.2888 93.4068 69.2888C93.8164 69.8291 93.3811 71.1127 93.7745 71.6082C93.8003 73.9037 93.4765 74.0649 93.0703 74.5066C93.0703 74.6649 93.2925 75.0828 93.2925 75.241C93.4052 75.3514 94.3398 76.0111 94.7497 75.9305C96.0158 75.966 101.226 79.9602 101.636 80.7304C105.373 81.008 105.103 79.8856 107.681 78.811C108.376 78.5185 108.932 78.7958 109.387 78.3275C109.864 77.8468 109.906 76.8976 110.365 76.411C110.425 67.3754 97.9256 58.8203 88.6683 58.5099H88.6694ZM73.9551 60.5695C73.4327 61.1188 72.0059 61.3188 71.6052 61.9367C70.995 62.877 69.5922 65.0232 68.493 66.047C64.9559 69.3455 57.3838 71.0052 53.6492 67.85C53.4065 67.8678 53.5461 68.0052 53.8378 68.9037C54.1107 70.6141 55.5107 74.629 54.9945 75.6499C55.3285 76.7901 55.684 76.3753 56.3154 77.0021C56.7491 77.429 56.9314 78.5454 57.4264 78.8498C57.997 78.8084 58.565 78.7694 59.1328 78.7304C59.2361 79.0438 59.3418 79.3573 59.4451 79.6707C60.1741 79.62 60.9056 79.5693 61.6343 79.5185C62.0439 79.608 63.2889 80.2349 63.6532 80.3364C64.464 80.2822 65.2747 80.2259 66.0854 80.1662C67.9465 80.6527 69.5676 79.8915 71.1313 78.8558C72.0088 78.2737 72.9682 78.3633 73.7423 77.7126C74.8657 76.7603 76.3962 74.9066 77.1158 73.626C78.8767 70.4858 78.2816 62.9606 76.6811 61.1009C76.0588 60.4293 75.3238 60.4203 73.9545 60.5696" fill="#969696"/>
<path d="M140.628 65.364H140.534C138.645 67.6834 136.052 68.6088 133.08 68.6088C125.629 68.6088 122.894 62.582 122.894 56.0448C122.894 49.4599 125.629 43.6152 133.08 43.6152C136.241 43.6152 138.457 44.6839 140.346 46.9555H140.439V33.2751H146.758V68.0536H140.628V65.364ZM134.826 63.788C139.025 63.788 140.391 59.4298 140.391 56.0448C140.391 52.7046 138.788 48.439 134.732 48.439C130.63 48.439 129.497 52.8449 129.497 56.0448C129.497 59.3373 130.675 63.788 134.826 63.788Z" fill="#969696"/>
<path d="M151.219 45.425C153.672 44.3115 156.973 43.616 159.663 43.616C167.065 43.616 170.131 46.6309 170.131 53.6785V56.7382C170.131 59.1501 170.183 60.959 170.225 62.7201C170.277 64.5291 170.368 66.1977 170.507 68.0544H164.945C164.709 66.8007 164.709 65.2246 164.66 64.4813H164.566C163.105 67.126 159.945 68.6096 157.066 68.6096C152.776 68.6096 148.577 66.0604 148.577 61.5142C148.577 57.9442 150.323 55.8576 152.728 54.6994C155.132 53.5382 158.244 53.3084 160.886 53.3084H164.377C164.377 49.4607 162.632 48.1592 158.906 48.1592C156.219 48.1592 153.529 49.1801 151.407 50.7562L151.219 45.425ZM158.624 64.0664C160.559 64.0664 162.067 63.2306 163.057 61.9321C164.096 60.5888 164.378 58.8725 164.378 57.0158H161.642C158.813 57.0158 154.614 57.4814 154.614 61.1441C154.614 63.1858 156.36 64.0664 158.624 64.0664" fill="#969696"/>
<path d="M173.346 33.2765H179.664V68.0549H173.346V33.2765Z" fill="#969696"/>
<path d="M183.086 33.2765H189.404V53.7269H189.498L197.046 44.1748H204.497L195.443 54.8373L205.629 68.0549H197.611L189.498 56.4611H189.404V68.0549H183.086V33.2765Z" fill="#969696"/>
<path d="M207.185 33.8793H213.504V39.8136H207.185V33.8793ZM207.185 44.1747H213.504V68.0548H207.185V44.1747Z" fill="#969696"/>
<path d="M218.042 45.425C220.495 44.3115 223.795 43.616 226.485 43.616C233.887 43.616 236.954 46.6309 236.954 53.6785V56.7382C236.954 59.1501 237.006 60.959 237.048 62.7201C237.1 64.5291 237.191 66.1977 237.33 68.0544H231.768C231.531 66.8007 231.531 65.2246 231.482 64.4813H231.388C229.925 67.126 226.767 68.6096 223.889 68.6096C219.599 68.6096 215.4 66.0604 215.4 61.5142C215.4 57.9442 217.146 55.8576 219.55 54.6994C221.955 53.5382 225.067 53.3084 227.708 53.3084H231.2C231.2 49.4607 229.454 48.1592 225.729 48.1592C223.042 48.1592 220.352 49.1801 218.229 50.7562L218.042 45.425ZM225.447 64.0664C227.381 64.0664 228.89 63.2306 229.88 61.9321C230.918 60.5888 231.2 58.8725 231.2 57.0158H228.465C225.635 57.0158 221.436 57.4814 221.436 61.1441C221.436 63.1858 223.182 64.0664 225.447 64.0664" fill="#969696"/>
<path d="M159.933 88.3605C159.268 88.5993 158.13 88.9367 157.122 88.9367C153.53 88.9367 152.018 86.2502 152.018 83.2323C152.018 79.7488 154.083 77.5607 157.04 77.5607C158.014 77.5607 158.925 77.6861 159.705 78.0533V79.4592C158.843 79.0293 157.887 78.7726 157.058 78.7726C155.203 78.7726 153.515 80.2263 153.515 82.9427C153.515 85.8203 154.684 87.7218 157.155 87.7218C157.61 87.7218 158.193 87.6083 158.567 87.4173V83.9039H156.666V82.6891H159.933V88.3605Z" fill="#969696"/>
<path d="M161.947 77.6711H164.856C166.058 77.6711 166.726 77.9577 167.245 78.4382C167.831 78.9814 168.09 79.7487 168.09 80.5636C168.09 81.7456 167.522 82.88 165.849 83.2322V83.2618C166.532 83.3901 166.857 83.7095 167.082 84.3483L168.676 88.8229H167.133L165.831 85.0528C165.506 84.1274 165.099 83.7752 164.027 83.7752H163.377V88.8229H161.948L161.947 77.6711ZM163.377 82.6232H164.482C166.01 82.6232 166.596 81.6322 166.596 80.6591C166.596 79.4114 165.767 78.8203 164.516 78.8203H163.377V82.6232Z" fill="#969696"/>
<path d="M173.681 77.559C176.201 77.559 177.811 79.6844 177.811 83.135C177.811 86.9857 176.232 88.9349 173.551 88.9349C171.034 88.9349 169.425 86.8096 169.425 83.3589C169.425 79.5082 171 77.559 173.681 77.559ZM173.55 87.7857C175.047 87.7857 176.314 86.5708 176.314 83.135C176.314 80.8814 175.6 78.7082 173.681 78.7082C172.187 78.7082 170.918 79.9232 170.918 83.3589C170.918 85.6126 171.635 87.7857 173.55 87.7857" fill="#969696"/>
<path d="M186.47 84.7173C186.47 85.8188 186.41 86.4277 186.015 87.2098C185.544 88.1381 184.552 88.9351 182.912 88.9351C181.27 88.9351 180.28 88.1381 179.806 87.2098C179.417 86.4277 179.354 85.8188 179.354 84.7173V77.6697H180.784V84.9262C180.784 86.6665 181.561 87.7859 182.912 87.7859C184.26 87.7859 185.04 86.6665 185.04 84.9262V77.6697H186.47L186.47 84.7173Z" fill="#969696"/>
<path d="M188.485 77.6711H191.215C192.353 77.6711 193.067 77.9755 193.671 78.5337C194.239 79.0771 194.564 79.8591 194.564 80.8352C194.564 83.0083 193.28 84.1575 190.875 84.1575H189.915V88.8231H188.485V77.6711ZM189.915 83.0083H190.696C192.436 83.0083 193.067 82.2084 193.067 80.9636C193.067 79.4293 192.19 78.8203 190.729 78.8203H189.915L189.915 83.0083Z" fill="#969696"/>
<path d="M195.814 77.6711H201.097V78.886H197.244V82.4322H200.917V83.6471H197.244V87.6082H201.306V88.8231H195.814V77.6711Z" fill="#969696"/>
<path d="M223.407 77.6735C226.555 77.6735 228.693 79.6228 228.693 83.1302C228.693 87.5271 225.763 88.8226 222.693 88.8226H218.597C218.614 88.5778 218.597 87.93 218.597 87.1181V79.378C218.597 78.5691 218.614 78.0496 218.597 77.6735H223.407ZM222.487 86.7181C224.229 86.7181 225.632 86.142 225.632 83.1302C225.632 80.5571 224.229 79.7063 222.487 79.7063H221.576V86.7181H222.487Z" fill="#969696"/>
<path d="M233.153 87.119C233.153 87.9279 233.188 88.8235 233.188 88.8235H230.136C230.136 88.8235 230.154 87.9279 230.154 87.119V79.3788C230.154 78.5669 230.136 77.6744 230.136 77.6744H237.344V79.8266C237.344 79.8266 235.735 79.7936 235.176 79.7936H233.154V82.0324L235.176 82.056C235.556 82.056 236.868 82.0324 236.868 82.0324V84.092C236.868 84.092 235.714 84.065 235.176 84.065L233.154 84.0768L233.153 87.119Z" fill="#969696"/>
<path d="M212.523 86.5734C211.093 86.5734 209.979 85.6241 209.979 84.1465V84.0152C209.979 84.0152 212.657 83.9585 213.541 83.9585C215.089 83.9585 215.73 83.9433 216.926 83.9255V83.0807C216.926 79.2867 215.289 77.4301 211.913 77.4301C210.343 77.4301 206.721 78.0062 206.721 83.3285C206.721 86.8836 208.564 89 211.743 89C214.242 89 215.787 88.3791 216.895 87.5702C216.768 87.3941 215.839 85.7493 215.729 85.5702C215.046 86.0747 213.935 86.5732 212.523 86.5732V86.5734ZM209.979 81.8809C210.031 81.2361 210.279 79.7406 211.928 79.7406C213.619 79.7406 213.723 81.1496 213.723 81.8898V82.045C213.723 82.045 212.587 82.0747 211.913 82.0747C211.233 82.0747 209.967 82.045 209.967 82.045L209.979 81.8809Z" fill="#969696"/>
</svg>
