<svg width="281" height="107" viewBox="0 0 281 107" fill="none" xmlns="http://www.w3.org/2000/svg">
<path d="M149.285 67.9709H174.022V64.9569H153.526V55.3125H168.921V52.2629H153.526V43.3774H174.022V40.3743H149.285V67.9709Z" fill="#969696"/>
<path d="M162.14 35.9133L158.791 39.6663L169.305 35.9133H162.14Z" fill="#969696"/>
<path d="M215.548 64.9569V40.3743H211.682V67.9709H236.688V64.9569H215.548Z" fill="#969696"/>
<path d="M190.05 40.3743L175.983 67.9709H180.738L184.337 60.8281H201.208L204.837 67.9709H209.543L195.465 40.3743H190.05ZM186.117 57.369L192.746 44.1876L199.452 57.369H186.117Z" fill="#969696"/>
<path d="M135.863 56.4313C142.201 54.7443 142.816 50.0402 142.784 48.3585C142.406 43.4285 139.076 40.3743 133.093 40.3743H115.656V67.9709H119.631V56.3945H130.983L139.334 67.9709H144.344C144.344 67.9709 138.334 60.1799 135.863 56.4313ZM132.55 53.1338H119.631V43.6408H133C136.078 43.6408 137.81 45.0741 138.433 46.895C138.846 48.1431 138.581 49.7816 137.899 50.8971C136.781 52.7414 134.659 53.1338 132.55 53.1338Z" fill="#969696"/>
<path d="M91.769 35.7013C80.5485 35.7013 72.9009 43.593 72.9009 53.1446C72.9009 63.2001 81.3488 70.2987 91.769 70.2987C102.182 70.2987 110.627 63.3014 110.627 53.1446C110.627 43.593 102.885 35.7013 91.769 35.7013ZM91.6343 66.8731C83.8714 66.8731 77.4753 60.6503 77.4753 53.1539C77.4753 45.6679 83.5695 39.147 91.9353 39.147C100.094 39.147 106.091 45.6679 106.091 53.1539C106.091 60.65 99.3939 66.8731 91.6343 66.8731Z" fill="#969696"/>
<path d="M62.8901 50.137H65.7583L70.9643 40.3743H66.7749L62.8901 50.137Z" fill="#969696"/>
<path d="M48.8685 64.9569V40.3743H45V67.9709H70.0055V64.9569H48.8685Z" fill="#969696"/>
</svg>
