<svg width="32" height="32" viewBox="0 0 32 32" fill="none" xmlns="http://www.w3.org/2000/svg">
<path d="M3.51251 18.8775C3.64251 18.8775 3.77251 18.8275 3.87251 18.7275L12.9325 9.42751L17.8225 14.4475C18.0125 14.6375 18.3525 14.6375 18.5425 14.4475L28.8525 3.8575C29.0425 3.6575 29.0425 3.3475 28.8525 3.1475C28.6525 2.9575 28.3425 2.9575 28.1425 3.1475L18.1825 13.3775L13.2925 8.3575C13.1025 8.1675 12.7625 8.1675 12.5725 8.3575L3.15251 18.0275C2.96251 18.2275 2.96251 18.5375 3.15251 18.7375C3.25251 18.8275 3.37251 18.8775 3.50251 18.8775H3.51251Z" fill="#C19C00"/>
<path d="M5.01245 21.4975C3.91245 21.4975 3.01245 22.3975 3.01245 23.4975V26.9975C3.01245 28.0975 3.91245 28.9975 5.01245 28.9975C6.11245 28.9975 7.01245 28.0975 7.01245 26.9975V23.4975C7.01245 22.3975 6.11245 21.4975 5.01245 21.4975ZM6.01245 26.9975C6.01245 27.5475 5.56245 27.9975 5.01245 27.9975C4.46245 27.9975 4.01245 27.5475 4.01245 26.9975V23.4975C4.01245 22.9475 4.46245 22.4975 5.01245 22.4975C5.56245 22.4975 6.01245 22.9475 6.01245 23.4975V26.9975Z" fill="#C19C00"/>
<path d="M27.0024 11.1175C25.9024 11.1175 25.0024 12.0175 25.0024 13.1175V26.9975C25.0024 28.0975 25.9024 28.9975 27.0024 28.9975C28.1024 28.9975 29.0024 28.0975 29.0024 26.9975V13.1175C29.0024 12.0175 28.1024 11.1175 27.0024 11.1175ZM28.0024 26.9975C28.0024 27.5475 27.5524 27.9975 27.0024 27.9975C26.4524 27.9975 26.0024 27.5475 26.0024 26.9975V13.1175C26.0024 12.5675 26.4524 12.1175 27.0024 12.1175C27.5524 12.1175 28.0024 12.5675 28.0024 13.1175V26.9975Z" fill="#C19C00"/>
<path d="M19.6724 16.9375C18.5724 16.9375 17.6724 17.8375 17.6724 18.9375V26.9975C17.6724 28.0975 18.5724 28.9975 19.6724 28.9975C20.7724 28.9975 21.6724 28.0975 21.6724 26.9975V18.9375C21.6724 17.8375 20.7724 16.9375 19.6724 16.9375ZM20.6724 26.9975C20.6724 27.5475 20.2224 27.9975 19.6724 27.9975C19.1224 27.9975 18.6724 27.5475 18.6724 26.9975V18.9375C18.6724 18.3875 19.1224 17.9375 19.6724 17.9375C20.2224 17.9375 20.6724 18.3875 20.6724 18.9375V26.9975Z" fill="#C19C00"/>
<path d="M12.3423 15.4975C11.2423 15.4975 10.3423 16.3975 10.3423 17.4975V26.9975C10.3423 28.0975 11.2423 28.9975 12.3423 28.9975C13.4423 28.9975 14.3423 28.0975 14.3423 26.9975V17.4975C14.3423 16.3975 13.4423 15.4975 12.3423 15.4975ZM13.3423 26.9975C13.3423 27.5475 12.8923 27.9975 12.3423 27.9975C11.7923 27.9975 11.3423 27.5475 11.3423 26.9975V17.4975C11.3423 16.9475 11.7923 16.4975 12.3423 16.4975C12.8923 16.4975 13.3423 16.9475 13.3423 17.4975V26.9975Z" fill="#C19C00"/>
</svg>
