<svg width="32" height="32" viewBox="0 0 32 32" fill="none" xmlns="http://www.w3.org/2000/svg">
<path d="M27.8401 22.89L25.0301 20.08C25.6401 19.32 26.0201 18.36 26.0201 17.31C26.0201 14.85 24.0201 12.85 21.5601 12.85C19.1001 12.85 17.1001 14.85 17.1001 17.31C17.1001 19.77 19.1001 21.77 21.5601 21.77C22.6101 21.77 23.5601 21.39 24.3301 20.78L27.1401 23.59C27.2401 23.69 27.3701 23.74 27.4901 23.74C27.6101 23.74 27.7501 23.69 27.8401 23.59C28.0401 23.39 28.0401 23.08 27.8401 22.88V22.89ZM18.0901 17.31C18.0901 15.4 19.6401 13.85 21.5501 13.85C23.4601 13.85 25.0101 15.4 25.0101 17.31C25.0101 19.22 23.4601 20.77 21.5501 20.77C19.6401 20.77 18.0901 19.22 18.0901 17.31V17.31Z" fill="#C19C00"/>
<path d="M23.51 24.1C23.23 24.1 23.01 24.32 23.01 24.6V26.97C23.01 27.52 22.56 27.97 22.01 27.97H6.01001C5.46001 27.97 5.01001 27.52 5.01001 26.97V5.03003C5.01001 4.48003 5.46001 4.03003 6.01001 4.03003H22.01C22.56 4.03003 23.01 4.48003 23.01 5.03003V9.93003C23.01 10.21 23.23 10.43 23.51 10.43C23.79 10.43 24.01 10.21 24.01 9.93003V5.03003C24.01 3.93003 23.11 3.03003 22.01 3.03003H6.01001C4.91001 3.03003 4.01001 3.93003 4.01001 5.03003V26.97C4.01001 28.07 4.91001 28.97 6.01001 28.97H22.01C23.11 28.97 24.01 28.07 24.01 26.97V24.6C24.01 24.32 23.79 24.1 23.51 24.1Z" fill="#C19C00"/>
<path d="M13.5902 16.03C13.4736 16.03 13.3764 15.9879 13.2986 15.9036C13.2274 15.8193 13.1917 15.7175 13.1917 15.598V14.5969L13.3861 14.7972C12.9326 14.7902 12.5244 14.7269 12.1616 14.6075C11.7988 14.481 11.4943 14.33 11.2481 14.1544C11.1574 14.0911 11.0926 14.0104 11.0537 13.912C11.0149 13.8137 11.0019 13.7153 11.0149 13.617C11.0343 13.5186 11.0732 13.4343 11.1315 13.3641C11.1898 13.2938 11.2611 13.2517 11.3453 13.2376C11.4295 13.2236 11.5267 13.2517 11.6368 13.3219C11.8377 13.4624 12.0871 13.5889 12.3851 13.7013C12.6896 13.8137 13.0589 13.8699 13.493 13.8699C13.8429 13.8699 14.1279 13.8207 14.3482 13.7223C14.575 13.624 14.7402 13.4905 14.8438 13.3219C14.954 13.1533 15.009 12.9566 15.009 12.7318C15.009 12.5492 14.9702 12.3911 14.8924 12.2576C14.8211 12.1242 14.7013 12.0118 14.5328 11.9204C14.3644 11.8221 14.1409 11.7413 13.8623 11.6781L12.8613 11.4463C12.2718 11.3058 11.8312 11.0739 11.5397 10.7508C11.2546 10.4276 11.1121 10.0026 11.1121 9.47576C11.1121 9.06129 11.2028 8.69248 11.3842 8.36933C11.572 8.04619 11.8312 7.78978 12.1616 7.6001C12.4985 7.41043 12.8905 7.30154 13.3375 7.27344L13.1917 7.42097V6.46206C13.1917 6.34264 13.2274 6.24078 13.2986 6.15648C13.3764 6.07218 13.4736 6.03003 13.5902 6.03003C13.7003 6.03003 13.7943 6.07218 13.872 6.15648C13.9498 6.24078 13.9886 6.34264 13.9886 6.46206V7.42097L13.8234 7.27344C14.1214 7.28047 14.4389 7.34721 14.7758 7.47365C15.1127 7.59308 15.401 7.76519 15.6407 7.98999C15.7185 8.06023 15.7671 8.14103 15.7865 8.23235C15.8124 8.32367 15.8124 8.41148 15.7865 8.49578C15.7671 8.58008 15.7282 8.65033 15.6699 8.70653C15.6116 8.76273 15.5371 8.79435 15.4464 8.80137C15.3556 8.80839 15.2585 8.77327 15.1548 8.69599C14.9475 8.54145 14.7175 8.41851 14.4648 8.32718C14.2186 8.23586 13.9238 8.1902 13.5805 8.1902C13.127 8.1902 12.7674 8.30611 12.5017 8.53793C12.2361 8.76976 12.1033 9.07182 12.1033 9.44415C12.1033 9.72514 12.1843 9.95346 12.3463 10.1291C12.5082 10.2977 12.7803 10.4276 13.1626 10.519L14.183 10.7508C14.805 10.8983 15.265 11.1266 15.563 11.4357C15.861 11.7448 16.01 12.1558 16.01 12.6686C16.01 13.069 15.9161 13.4238 15.7282 13.7329C15.5403 14.0349 15.2811 14.2773 14.9507 14.46C14.6268 14.6356 14.251 14.7445 13.8234 14.7866L13.9886 14.5864V15.598C13.9886 15.7175 13.9498 15.8193 13.872 15.9036C13.8007 15.9879 13.7068 16.03 13.5902 16.03Z" fill="#C19C00"/>
</svg>
