<svg width="32" height="32" viewBox="0 0 32 32" fill="none" xmlns="http://www.w3.org/2000/svg">
<path d="M4.46135 11H27.5386C27.7418 11 27.9265 10.8658 27.9819 10.678C28.0373 10.4902 27.9634 10.2845 27.788 10.1772L16.2447 3.06708C16.097 2.97764 15.903 2.97764 15.746 3.06708L4.21202 10.1772C4.03656 10.2845 3.96268 10.4902 4.01809 10.678C4.0735 10.8658 4.25819 11 4.46135 11ZM15.9954 3.97037L25.9503 10.1056H6.04971L15.9954 3.97037Z" fill="#C19C00"/>
<path d="M26.1524 23.4307H24.3233V14.4641C24.3233 14.2042 24.1201 14 23.8614 14C23.6028 14 23.3995 14.2042 23.3995 14.4641V23.4307H19.0855V14.4641C19.0855 14.2042 18.8822 14 18.6236 14C18.3649 14 18.1617 14.2042 18.1617 14.4641V23.4307H13.8476V14.4641C13.8476 14.2042 13.6443 14 13.3857 14C13.127 14 12.9238 14.2042 12.9238 14.4641V23.4307H8.6097V14.4641C8.6097 14.2042 8.40647 14 8.14781 14C7.88915 14 7.68591 14.2042 7.68591 14.4641V23.4307H5.85681C4.83141 23.4307 4 24.2661 4 25.2871V27.1436C4 28.1646 4.83141 29 5.84758 29H26.1524C27.1686 29 28 28.1646 28 27.1436V25.2871C28 24.2661 27.1686 23.4307 26.1524 23.4307ZM27.0762 27.1436C27.0762 27.6541 26.6605 28.0718 26.1524 28.0718H5.85681C5.34873 28.0718 4.93303 27.6541 4.93303 27.1436V25.2871C4.93303 24.7766 5.34873 24.3589 5.85681 24.3589H26.1524C26.6605 24.3589 27.0762 24.7766 27.0762 25.2871V27.1436Z" fill="#C19C00"/>
</svg>
