<svg width="32" height="32" viewBox="0 0 32 32" fill="none" xmlns="http://www.w3.org/2000/svg">
<path d="M27.0714 17.6015H24.9286V15.4586C24.9286 15.2186 24.74 15.03 24.5 15.03C24.26 15.03 24.0714 15.2186 24.0714 15.4586V17.6015H21.9286C21.6886 17.6015 21.5 17.79 21.5 18.03C21.5 18.27 21.6886 18.4586 21.9286 18.4586H24.0714V20.6015C24.0714 20.8415 24.26 21.03 24.5 21.03C24.74 21.03 24.9286 20.8415 24.9286 20.6015V18.4586H27.0714C27.3114 18.4586 27.5 18.27 27.5 18.03C27.5 17.79 27.3114 17.6015 27.0714 17.6015Z" fill="#C19C00" stroke="#C19C00" stroke-width="0.1"/>
<path d="M24 22.38C23.72 22.38 23.5 22.6 23.5 22.88V26.97C23.5 27.52 23.05 27.97 22.5 27.97H6.5C5.95 27.97 5.5 27.52 5.5 26.97V5.03003C5.5 4.48003 5.95 4.03003 6.5 4.03003H22.5C23.05 4.03003 23.5 4.48003 23.5 5.03003V13.18C23.5 13.46 23.72 13.68 24 13.68C24.28 13.68 24.5 13.46 24.5 13.18V5.03003C24.5 3.93003 23.6 3.03003 22.5 3.03003H6.5C5.4 3.03003 4.5 3.93003 4.5 5.03003V26.97C4.5 28.07 5.4 28.97 6.5 28.97H22.5C23.6 28.97 24.5 28.07 24.5 26.97V22.88C24.5 22.6 24.28 22.38 24 22.38Z" fill="#C19C00"/>
<path d="M15.0802 18.03C14.9636 18.03 14.8664 17.9879 14.7886 17.9036C14.7174 17.8193 14.6817 17.7175 14.6817 17.598V16.5969L14.8761 16.7972C14.4226 16.7902 14.0144 16.7269 13.6516 16.6075C13.2888 16.481 12.9843 16.33 12.7381 16.1544C12.6474 16.0911 12.5826 16.0104 12.5437 15.912C12.5049 15.8137 12.4919 15.7153 12.5049 15.617C12.5243 15.5186 12.5632 15.4343 12.6215 15.3641C12.6798 15.2938 12.7511 15.2517 12.8353 15.2376C12.9195 15.2236 13.0167 15.2517 13.1268 15.3219C13.3277 15.4624 13.5771 15.5889 13.8751 15.7013C14.1796 15.8137 14.5489 15.8699 14.983 15.8699C15.3328 15.8699 15.6179 15.8207 15.8382 15.7223C16.065 15.624 16.2302 15.4905 16.3338 15.3219C16.444 15.1533 16.499 14.9566 16.499 14.7318C16.499 14.5492 16.4602 14.3911 16.3824 14.2576C16.3111 14.1242 16.1913 14.0118 16.0228 13.9204C15.8544 13.8221 15.6309 13.7413 15.3523 13.6781L14.3513 13.4463C13.7617 13.3058 13.3212 13.0739 13.0296 12.7508C12.7446 12.4276 12.602 12.0026 12.602 11.4758C12.602 11.0613 12.6927 10.6925 12.8741 10.3693C13.062 10.0462 13.3212 9.78978 13.6516 9.6001C13.9885 9.41043 14.3805 9.30154 14.8275 9.27344L14.6817 9.42097V8.46206C14.6817 8.34264 14.7174 8.24078 14.7886 8.15648C14.8664 8.07218 14.9636 8.03003 15.0802 8.03003C15.1903 8.03003 15.2843 8.07218 15.362 8.15648C15.4397 8.24078 15.4786 8.34264 15.4786 8.46206V9.42097L15.3134 9.27344C15.6114 9.28047 15.9289 9.34721 16.2658 9.47365C16.6027 9.59308 16.891 9.76519 17.1307 9.98999C17.2085 10.0602 17.257 10.141 17.2765 10.2323C17.3024 10.3237 17.3024 10.4115 17.2765 10.4958C17.257 10.5801 17.2182 10.6503 17.1599 10.7065C17.1016 10.7627 17.0271 10.7943 16.9363 10.8014C16.8456 10.8084 16.7485 10.7733 16.6448 10.696C16.4375 10.5414 16.2075 10.4185 15.9548 10.3272C15.7086 10.2359 15.4138 10.1902 15.0705 10.1902C14.6169 10.1902 14.2574 10.3061 13.9917 10.5379C13.7261 10.7698 13.5933 11.0718 13.5933 11.4441C13.5933 11.7251 13.6743 11.9535 13.8362 12.1291C13.9982 12.2977 14.2703 12.4276 14.6526 12.519L15.673 12.7508C16.2949 12.8983 16.7549 13.1266 17.053 13.4357C17.351 13.7448 17.5 14.1558 17.5 14.6686C17.5 15.069 17.4061 15.4238 17.2182 15.7329C17.0303 16.0349 16.7711 16.2773 16.4407 16.46C16.1168 16.6356 15.741 16.7445 15.3134 16.7866L15.4786 16.5864V17.598C15.4786 17.7175 15.4397 17.8193 15.362 17.9036C15.2907 17.9879 15.1968 18.03 15.0802 18.03Z" fill="#C19C00"/>
</svg>
