<svg width="32" height="32" viewBox="0 0 32 32" fill="none" xmlns="http://www.w3.org/2000/svg">
<path d="M20.0078 4.75C20.8984 4.75 21.625 5.4748 21.625 6.36895C21.625 6.76094 21.4844 7.14063 21.2266 7.43359L15.0625 14.4766V25.8203C15.0625 26.6113 14.4238 27.25 13.6328 27.25C13.3223 27.25 13.0234 27.1504 12.7715 26.9629L8.30664 23.5938C7.83789 23.2363 7.5625 22.6855 7.5625 22.0938V14.4766L1.40055 7.43359C1.14232 7.14063 1 6.76094 1 6.36895C1 5.4748 1.7248 4.75 2.61895 4.75H20.0078ZM9.4375 14.125V22.0938L13.1875 24.9238V14.0723C13.1875 13.8965 13.2695 13.6797 13.3691 13.5098L19.4395 6.57227H3.1832L9.20312 13.5098C9.35547 13.6797 9.38477 13.8965 9.38477 14.0723L9.4375 14.125ZM30.0625 24.4375C30.5781 24.4375 31 24.8594 31 25.375C31 25.8906 30.5781 26.3125 30.0625 26.3125H20.6875C20.1719 26.3125 19.75 25.8906 19.75 25.375C19.75 24.8594 20.1719 24.4375 20.6875 24.4375H30.0625ZM19.75 16C19.75 15.4844 20.1719 15.0625 20.6875 15.0625H30.0625C30.5781 15.0625 31 15.4844 31 16C31 16.5156 30.5781 16.9375 30.0625 16.9375H20.6875C20.1719 16.9375 19.75 16.5156 19.75 16ZM30.0625 5.6875C30.5781 5.6875 31 6.10703 31 6.625C31 7.14063 30.5781 7.5625 30.0625 7.5625H24.4375C23.9219 7.5625 23.5 7.14063 23.5 6.625C23.5 6.10703 23.9219 5.6875 24.4375 5.6875H30.0625Z" fill="white"/>
</svg>
