<svg width="16" height="16" viewBox="0 0 16 16" fill="none" xmlns="http://www.w3.org/2000/svg">
<path d="M10.1375 2C10.6125 2 11 2.38656 11 2.86344C11 3.0725 10.925 3.275 10.7875 3.43125L7.5 7.1875V13.2375C7.5 13.6594 7.15938 14 6.7375 14C6.57188 14 6.4125 13.9469 6.27812 13.8469L3.89687 12.05C3.64687 11.8594 3.5 11.5656 3.5 11.25V7.1875L0.213625 3.43125C0.0759062 3.275 0 3.0725 0 2.86344C0 2.38656 0.386562 2 0.863437 2H10.1375ZM4.5 7V11.25L6.5 12.7594V6.97188C6.5 6.87813 6.54375 6.7625 6.59688 6.67188L9.83438 2.97187H1.16437L4.375 6.67188C4.45625 6.7625 4.47188 6.87813 4.47188 6.97188L4.5 7ZM15.5 12.5C15.775 12.5 16 12.725 16 13C16 13.275 15.775 13.5 15.5 13.5H10.5C10.225 13.5 10 13.275 10 13C10 12.725 10.225 12.5 10.5 12.5H15.5ZM10 8C10 7.725 10.225 7.5 10.5 7.5H15.5C15.775 7.5 16 7.725 16 8C16 8.275 15.775 8.5 15.5 8.5H10.5C10.225 8.5 10 8.275 10 8ZM15.5 2.5C15.775 2.5 16 2.72375 16 3C16 3.275 15.775 3.5 15.5 3.5H12.5C12.225 3.5 12 3.275 12 3C12 2.72375 12.225 2.5 12.5 2.5H15.5Z" fill="white"/>
</svg>
