<svg width="16" height="16" viewBox="0 0 16 16" fill="none" xmlns="http://www.w3.org/2000/svg">
<path d="M14.7877 13.8789L11.1226 10.2148C11.9158 9.24414 12.3534 8.02187 12.3534 6.6875C12.3534 3.5457 9.80624 1 6.66442 1C3.5226 1 1 3.54652 1 6.6875C1 9.82848 3.54694 12.375 6.66442 12.375C7.99888 12.375 9.22311 11.9126 10.1927 11.1434L13.8578 14.8075C14.0109 14.9371 14.1805 15 14.3473 15C14.5142 15 14.6832 14.9359 14.8115 14.8077C15.0667 14.5516 15.0667 14.1359 14.7877 13.8789ZM2.31286 6.6875C2.31286 4.27523 4.27612 2.3125 6.68903 2.3125C9.10195 2.3125 11.0652 4.27523 11.0652 6.6875C11.0652 9.09977 9.10195 11.0625 6.68903 11.0625C4.27612 11.0625 2.31286 9.09922 2.31286 6.6875Z" fill="black"/>
</svg>
