<svg width="94" height="80" viewBox="0 0 94 80" fill="none" xmlns="http://www.w3.org/2000/svg">
<path d="M20.7642 62.2222L15.1647 53.9727V59.8161C15.1748 60.7 15.19 60.7442 15.2861 60.9553C15.4682 61.3138 15.9184 61.5544 16.3938 61.5544H16.5051V62.0258H13.4702V61.5544L13.5309 61.5397C14.0164 61.5102 14.4818 61.2696 14.6184 60.9553C14.7044 60.7834 14.7145 60.6263 14.7145 59.8161V54.8418C14.6639 53.2312 14.5172 52.9906 13.5916 52.9906H13.5207V52.5192H16.0347L20.744 59.4036V54.4735C20.7541 53.462 20.4658 53.0888 19.5755 52.9906H19.4389V52.5192H22.3879V52.9906L22.2918 53.0053C21.437 53.1477 21.1588 53.5307 21.1942 54.5423V62.2222H20.7693H20.7642Z" fill="#81939B"/>
<path d="M30.0563 59.0157L29.9197 62.0209H22.9545V61.5348H23.1113C23.9914 61.5348 24.1229 61.2795 24.1381 59.7228V54.7191C24.128 53.2067 24.0015 52.9955 23.1872 52.9808H23.0658V52.5094H29.247L29.4038 54.9057H28.9991C28.6552 53.3393 28.2303 52.9513 26.8797 53.0103H25.6252V56.7569H26.4548C27.3552 56.7422 27.5525 56.5409 27.5626 55.6717L27.5727 55.4164H27.9875V58.6671H27.5727V58.5542C27.5373 57.469 27.3653 57.2578 26.475 57.2725H25.6202V59.551C25.6303 61.2893 25.777 61.5446 26.8139 61.5201H27.2894C28.5692 61.5495 29.2166 60.8621 29.6314 59.0108H30.0462L30.0563 59.0157Z" fill="#81939B"/>
<path d="M39.6265 57.8617V58.3478H39.5304C38.7262 58.4068 38.6301 58.6032 38.6402 60.1745V61.5151C38.5188 61.4856 38.4429 61.4856 38.3974 61.4856C38.0332 61.4856 37.5172 61.5985 36.9962 61.7999C36.1566 62.1141 35.7013 62.2123 35.069 62.2123C32.7017 62.2123 30.9718 60.1892 30.9718 57.4247C30.9718 55.9417 31.4979 54.5029 32.3881 53.5356C33.1064 52.7646 34.0472 52.3522 35.0943 52.3522C36.1414 52.3522 37.0316 52.7647 37.755 53.6485C37.9017 53.3195 37.9725 53.02 38.0129 52.6075H38.4176L38.4429 55.8435H38.0281C37.7499 54.0168 36.7332 52.9218 35.3472 52.9218C34.4317 52.9218 33.6021 53.4619 33.2126 54.3065C32.8687 55.048 32.7119 56.0154 32.7119 57.3559C32.7119 58.6965 32.8838 59.6786 33.2126 60.3464C33.6173 61.1861 34.3963 61.6869 35.2966 61.6869C36.0402 61.6869 36.6725 61.3432 36.9659 60.7736C37.1025 60.5477 37.148 60.2629 37.148 59.8062V59.4478C37.1126 58.5639 36.9305 58.3527 36.1869 58.3527H36.0301V57.8666H39.6417L39.6265 57.8617Z" fill="#81939B"/>
<path d="M49.3688 57.2626C49.3688 60.1991 47.5529 62.2075 44.8923 62.2075C42.2316 62.2075 40.4308 60.1844 40.4308 57.2774C40.4308 54.3704 42.2619 52.3473 44.9681 52.3473C47.5276 52.3473 49.3688 54.3999 49.3688 57.2626V57.2626ZM42.1861 57.2037C42.1861 58.5001 42.3682 59.5558 42.7121 60.2826C43.1168 61.137 43.9565 61.6673 44.9327 61.6673C46.688 61.6673 47.6136 60.1696 47.6136 57.3363C47.6136 56.094 47.4163 55.0284 47.0673 54.2869C46.6627 53.4178 45.8382 52.8924 44.8973 52.8924C43.1421 52.8924 42.1911 54.4195 42.1911 57.2086L42.1861 57.2037Z" fill="#81939B"/>
<path d="M57.9882 58.4313V61.8392H57.5987C57.5127 61.4267 57.4166 61.1566 57.2193 60.8571C56.5364 61.7557 55.5956 62.2123 54.4777 62.2123C52.1256 62.2123 50.4513 60.2187 50.4513 57.3952C50.4513 55.8681 50.9622 54.4146 51.8272 53.4914C52.5353 52.7499 53.461 52.3522 54.5232 52.3522C55.5855 52.3522 56.5465 52.8383 57.1839 53.6633C57.3407 53.3048 57.4267 52.9807 57.4773 52.5682H57.8819L57.9578 56.143H57.5683C57.4216 55.2444 57.2041 54.6061 56.8602 54.061C56.4353 53.3637 55.5905 52.8923 54.761 52.8923C53.0917 52.8923 52.1762 54.4735 52.1762 57.3657C52.1762 58.5639 52.333 59.4772 52.6769 60.1598C53.117 61.0879 53.9213 61.628 54.8217 61.628C55.722 61.628 56.6123 61.0731 57.0524 60.204C57.3306 59.6491 57.5026 59.0795 57.5987 58.4362H57.9882V58.4313Z" fill="#81939B"/>
<path d="M59.1719 52.5143H63.087V52.9857H62.9302C62.0045 52.9857 61.8831 53.187 61.8679 54.7387V59.7277C61.8781 61.2794 62.0146 61.5397 62.8897 61.5544H63.087V62.0258H59.1719V61.5544H59.3692C60.2341 61.5397 60.3707 61.2843 60.3808 59.7277V54.7387C60.3707 53.187 60.2442 52.9857 59.3186 52.9857H59.1719V52.5143Z" fill="#81939B"/>
<path d="M72.9253 57.2626C72.9253 60.1991 71.1094 62.2075 68.4487 62.2075C65.7881 62.2075 63.9873 60.1844 63.9873 57.2774C63.9873 54.3704 65.8184 52.3473 68.5246 52.3473C71.0841 52.3473 72.9253 54.3999 72.9253 57.2626V57.2626ZM65.7425 57.2037C65.7425 58.5001 65.9246 59.5558 66.2686 60.2826C66.6733 61.137 67.5129 61.6673 68.4892 61.6673C70.2444 61.6673 71.1701 60.1696 71.1701 57.3363C71.1701 56.094 70.9728 55.0284 70.6238 54.2869C70.2191 53.4178 69.3946 52.8924 68.4538 52.8924C66.6986 52.8924 65.7476 54.4195 65.7476 57.2086L65.7425 57.2037Z" fill="#81939B"/>
<path d="M74.1545 58.7898H74.5945C74.7311 59.5166 74.8879 60.0027 75.1054 60.4152C75.5303 61.2254 76.193 61.6673 76.9365 61.6673C77.8369 61.6673 78.5097 60.9848 78.5097 60.042C78.5097 59.659 78.363 59.2416 78.1303 58.9862C77.7408 58.5443 77.6548 58.4854 76.279 57.7586C75.3381 57.2479 74.7665 56.7618 74.5085 56.2069C74.291 55.7797 74.1899 55.3378 74.1899 54.8664C74.1899 53.4276 75.1661 52.3424 76.4712 52.3424C77.1894 52.3424 77.7509 52.6272 78.3023 53.2852C78.4844 53.0151 78.5198 52.8875 78.5805 52.5143H78.9851V55.107H78.5805C78.2871 53.6977 77.5081 52.8433 76.5319 52.8433C75.7883 52.8433 75.2622 53.3834 75.2622 54.1838C75.2622 54.9842 75.7276 55.4949 77.0428 56.1627C78.1505 56.7176 78.7019 57.0908 79.0408 57.4886C79.4454 57.9894 79.6731 58.672 79.6731 59.3987C79.6731 61.0241 78.5855 62.2075 77.0883 62.2075C76.2081 62.2075 75.4292 61.795 74.8576 61.0241C74.7261 61.2647 74.6502 61.5249 74.5895 61.8932H74.1494V58.7849L74.1545 58.7898Z" fill="#81939B"/>
<path d="M17.8152 17.9546C20.631 17.8368 22.4081 17.7778 23.1466 17.7778C26.4295 17.7778 29.6921 18.1756 31.4878 18.9662C34.0928 20.1103 35.499 22.1334 35.499 24.7703C35.499 28.463 32.0644 30.8347 26.733 31.6302C32.9597 32.1114 36.3336 34.8809 36.3336 39.4133C36.3336 42.227 34.9274 44.7313 32.5803 46.0522C30.7442 47.0637 28.6551 47.4173 23.961 47.4173H13.8242C13.3487 47.4173 13.3487 46.4057 13.8242 46.4057H14.1884C17.5572 46.4057 17.6027 45.8361 17.5168 39.811V25.5216C17.6027 19.4572 18.0074 19.0153 14.3806 19.1037H13.8242C13.3487 19.1037 13.3487 18.0921 13.8242 18.0921L17.8152 17.9595V17.9546ZM22.5093 31.2325C28.2707 31.2325 30.3598 29.6071 30.3598 25.0355C30.3598 22.0892 29.5504 20.3755 27.6738 19.4523C26.7785 19.0545 25.4128 18.8385 23.2782 18.8385C22.6357 18.8385 22.7217 18.8385 22.0844 18.9269V31.2374H22.5143L22.5093 31.2325ZM22.0793 38.7945V45.4089C22.0793 46.4401 23.5311 46.17 25.5341 46.17C28.8069 46.17 31.5738 44.3483 31.5738 39.4133C31.5738 34.2278 29.4594 32.2489 23.1922 32.2489C22.5953 32.2489 23.0202 32.2489 22.0793 32.2931V38.7995V38.7945Z" fill="#1D343E"/>
<path d="M57.6796 40.6261C57.6796 40.5181 57.6796 40.4101 57.6695 40.3021C57.6695 40.2628 57.6644 40.2235 57.6594 40.1891C57.6543 40.0958 57.6442 40.0074 57.6341 39.919C57.6341 39.8945 57.629 39.8699 57.624 39.8454C57.6189 39.7865 57.6088 39.7275 57.5987 39.6735C57.5886 39.6195 57.5835 39.5704 57.5734 39.5213C57.5633 39.4722 57.5532 39.4182 57.543 39.3691C57.5329 39.3151 57.5177 39.261 57.5076 39.207C57.4975 39.1628 57.4874 39.1137 57.4722 39.0695C57.457 39.0106 57.4419 38.9566 57.4267 38.9026C57.4166 38.8633 57.4014 38.824 57.3913 38.7847C57.3711 38.7258 57.3559 38.662 57.3356 38.603C57.3255 38.5687 57.3154 38.5392 57.3002 38.5097C57.2749 38.441 57.2547 38.3772 57.2294 38.3133V38.2986H57.2244C57.1687 38.1562 57.103 38.0187 57.0372 37.8861C57.022 37.8567 57.0069 37.8272 56.9917 37.7977C56.9613 37.7437 56.936 37.6848 56.9057 37.6308L56.8855 37.5915C56.845 37.5227 56.8045 37.454 56.7641 37.3853C56.7034 37.2821 56.6325 37.179 56.5668 37.0808L56.5567 37.0661C56.4909 36.9679 56.4201 36.8697 56.3442 36.7764V36.7665C56.2582 36.6585 56.1722 36.5554 56.0812 36.4572C56.0508 36.4228 56.0205 36.3884 55.9901 36.359C55.9294 36.2902 55.8637 36.2264 55.803 36.1626C55.7878 36.1478 55.7726 36.1331 55.7575 36.1184C55.6765 36.0349 55.5905 35.9563 55.5096 35.8777L55.4894 35.8581C55.373 35.755 55.2567 35.6519 55.1353 35.5537C55.0645 35.4996 54.9937 35.4456 54.9228 35.3916C54.852 35.3425 54.7812 35.2934 54.7053 35.2443H54.6952C54.3968 35.0479 54.068 34.8809 53.719 34.7287C53.6431 34.6943 53.5723 34.6649 53.4964 34.6354C53.3699 34.5814 53.2435 34.5372 53.112 34.493C53.0816 34.4832 53.0563 34.4734 53.026 34.4635C52.8995 34.4193 52.768 34.3801 52.6416 34.3457C52.6213 34.3408 52.596 34.3359 52.5758 34.331C52.4544 34.3015 52.333 34.272 52.2116 34.2426C52.1914 34.2426 52.1661 34.2327 52.1458 34.2278C52.0093 34.2033 51.8777 34.1787 51.7361 34.1591C51.7058 34.1591 51.6754 34.1493 51.6451 34.1493C51.5034 34.1296 51.3618 34.1149 51.2202 34.1051H51.205C51.0128 34.0903 50.8206 34.0805 50.6233 34.0805C50.426 34.0805 50.2237 34.0903 50.0315 34.1051C49.9354 34.1149 49.8393 34.1198 49.7431 34.1345H49.7229C49.1311 34.2033 48.5595 34.3408 48.0233 34.5372C47.8564 34.601 47.6895 34.6649 47.5276 34.7385C47.1786 34.8858 46.8498 35.0577 46.5514 35.2443H46.5412C46.4654 35.2983 46.3946 35.3474 46.3237 35.3965C46.2479 35.4505 46.177 35.4996 46.1113 35.5586C45.9899 35.6568 45.8736 35.755 45.7572 35.863L45.737 35.8827C45.651 35.9612 45.5701 36.0398 45.4891 36.1233C45.0996 36.5063 44.7607 36.9286 44.4775 37.3902C44.3763 37.5522 44.2852 37.7192 44.2043 37.891C44.1386 38.0285 44.0728 38.166 44.0172 38.3084V38.3231H44.0121C43.9514 38.4754 43.8958 38.6325 43.8502 38.7896L43.8401 38.8142C43.7845 38.9959 43.7339 39.1874 43.6985 39.3789C43.6934 39.4133 43.6884 39.4427 43.6783 39.4722C43.6631 39.5409 43.653 39.6146 43.6428 39.6833C43.6327 39.7423 43.6277 39.8012 43.6176 39.8552C43.6024 39.9681 43.5923 40.0811 43.5872 40.194V40.2038C43.5872 40.2431 43.5821 40.2824 43.5771 40.3168C43.572 40.4248 43.567 40.5328 43.567 40.6458C43.567 40.6802 43.567 40.7194 43.567 40.7538C43.567 40.7882 43.567 40.8275 43.567 40.8618C43.567 40.9699 43.567 41.0828 43.5771 41.1908C43.5771 41.2301 43.5821 41.2694 43.5872 41.3038C43.5872 41.3725 43.5973 41.4413 43.6024 41.51C43.6024 41.5591 43.6125 41.6033 43.6176 41.6524C43.6226 41.7114 43.6327 41.7703 43.6428 41.8243C43.653 41.8734 43.658 41.9274 43.6681 41.9765C43.6783 42.0305 43.6884 42.0796 43.6985 42.1287C43.7086 42.1828 43.7238 42.2368 43.7339 42.2908C43.744 42.335 43.7541 42.3841 43.7693 42.4283C43.7845 42.4872 43.7997 42.5412 43.8148 42.5952C43.8249 42.6345 43.8401 42.6738 43.8502 42.718C43.8705 42.7769 43.8856 42.8358 43.9059 42.8948C43.916 42.9291 43.9312 42.9586 43.9413 42.993C43.9666 43.0568 43.9868 43.1207 44.0121 43.1845V43.1992C44.0779 43.3416 44.1386 43.4791 44.2043 43.6166C44.2144 43.6363 44.2246 43.6559 44.2296 43.6755C44.265 43.7443 44.3004 43.8081 44.3358 43.872L44.3561 43.9112C44.3965 43.98 44.437 44.0487 44.4775 44.1175C44.5382 44.2206 44.609 44.3237 44.6747 44.4219L44.6849 44.4367C44.7506 44.5349 44.8214 44.6331 44.8973 44.7264C44.9175 44.7558 44.9378 44.7804 44.958 44.8049C44.3662 45.6741 43.7693 46.0915 43.0207 46.0915C42.3479 46.0915 41.7055 45.6839 41.4172 45.0014C41.1592 44.4907 41.0985 43.3171 41.0985 41.51V33.231H45.3627C45.6864 33.231 45.6864 32.4453 45.3627 32.4453H41.0985V29.7348C41.0985 29.5531 40.4055 29.5531 40.4055 29.7348C39.4698 31.7972 37.5425 32.411 35.7165 32.4453C35.3877 32.4453 35.3877 33.231 35.7165 33.231H38.1091V40.9993C38.1091 43.5871 38.1748 44.9424 38.5896 45.7232C39.1005 46.7446 40.9367 47.4271 42.1203 47.4271C43.4759 47.4271 44.695 46.5138 45.3627 45.2665C45.3981 45.3058 45.4385 45.3451 45.4739 45.3844C45.5296 45.4384 45.5852 45.4924 45.6409 45.5464C45.6763 45.5808 45.7066 45.6152 45.742 45.6446C45.8584 45.7527 45.9747 45.8558 46.0961 45.9491C46.1669 46.0031 46.2377 46.0571 46.3086 46.1111C46.3794 46.1602 46.4553 46.2142 46.5311 46.2584C46.5868 46.2977 46.6424 46.3272 46.6981 46.3615C46.7183 46.3763 46.7385 46.3861 46.7638 46.4008C46.8346 46.4401 46.9054 46.4794 46.9763 46.5138L47.0016 46.5285C47.0825 46.5678 47.1634 46.612 47.2494 46.6513C47.3708 46.7102 47.4922 46.7642 47.6187 46.8133C47.6541 46.828 47.6945 46.8477 47.7299 46.8624C48.4381 47.1521 49.2019 47.3338 50.0062 47.3977C50.1023 47.4026 50.1984 47.4124 50.2945 47.4173H50.2996C50.4007 47.4173 50.5019 47.4222 50.598 47.4222C50.684 47.4222 50.775 47.4222 50.8661 47.4173C50.8813 47.4173 50.8914 47.4173 50.9066 47.4173C51.0027 47.4173 51.0988 47.4075 51.1949 47.3977C51.9991 47.3387 52.7629 47.1521 53.4711 46.8624C53.547 46.833 53.6229 46.7986 53.6937 46.7642C54.0427 46.6169 54.3715 46.445 54.6699 46.2584H54.68L54.6952 46.2437C54.766 46.1995 54.8369 46.1553 54.9026 46.1062C54.9481 46.0718 54.9937 46.0375 55.0392 46.0031C55.0645 45.9834 55.0948 45.9638 55.1201 45.9442C55.2415 45.846 55.3579 45.7477 55.4742 45.6397L55.4944 45.6201C55.5804 45.5415 55.6613 45.4629 55.7423 45.3795C55.7423 45.3795 55.7726 45.3451 55.7878 45.3304C55.8283 45.2862 55.8738 45.2469 55.9143 45.2027C56.061 45.0505 56.2026 44.8933 56.329 44.7264C56.4049 44.6282 56.4757 44.53 56.5415 44.4317L56.5516 44.417C56.6224 44.3188 56.6882 44.2157 56.7489 44.1126C56.7894 44.0438 56.8298 43.9751 56.8703 43.9063L56.8905 43.867C56.9259 43.8032 56.9613 43.7345 56.9967 43.6706C57.0069 43.651 57.017 43.6313 57.022 43.6117C57.0878 43.4742 57.1535 43.3367 57.2092 43.1943V43.1796H57.2142C57.2395 43.1157 57.2648 43.0519 57.2851 42.9832C57.2952 42.9488 57.3104 42.9193 57.3205 42.885C57.3407 42.826 57.3609 42.7671 57.3761 42.7082C57.3862 42.6689 57.4014 42.6296 57.4115 42.5854C57.4267 42.5314 57.4419 42.4725 57.457 42.4185C57.4672 42.3743 57.4823 42.3252 57.4925 42.281C57.5026 42.227 57.5177 42.1729 57.5279 42.1189C57.538 42.0698 57.5481 42.0158 57.5582 41.9667C57.5683 41.9176 57.5784 41.8636 57.5835 41.8145C57.5936 41.7556 57.5987 41.6966 57.6088 41.6426C57.6139 41.5984 57.6189 41.5493 57.624 41.5002C57.629 41.4315 57.6341 41.3627 57.6391 41.294C57.6391 41.2547 57.6442 41.2154 57.6493 41.181C57.6543 41.073 57.6594 40.965 57.6594 40.852C57.6594 40.8177 57.6594 40.7784 57.6594 40.744C57.6594 40.7096 57.6594 40.6703 57.6594 40.636L57.6796 40.6261ZM54.5384 42.9684C54.5081 43.1452 54.4777 43.3122 54.4423 43.4742V43.484C54.2906 44.1322 54.0832 44.6822 53.7999 45.129V45.1388C53.5116 45.5857 53.1626 45.9393 52.7377 46.1946H52.7326C52.6264 46.2584 52.5151 46.3174 52.4038 46.3665H52.3988C52.0497 46.5236 51.6552 46.6218 51.2202 46.6709C51.1291 46.6807 51.0381 46.6856 50.942 46.6955H50.9268C50.8307 46.7004 50.7295 46.7053 50.6283 46.7053C50.5272 46.7053 50.426 46.7053 50.3299 46.6955H50.3147C50.2186 46.6905 50.1276 46.6807 50.0365 46.6709C49.5965 46.6267 49.207 46.5236 48.8579 46.3714H48.8529C48.7365 46.3174 48.6253 46.2633 48.5241 46.1995H48.519C48.0941 45.9442 47.7401 45.5906 47.4619 45.1438V45.1339C47.1735 44.6822 46.9661 44.1371 46.8195 43.4889V43.4791C46.779 43.3171 46.7486 43.1501 46.7183 42.9783C46.6323 42.4479 46.5817 41.8636 46.5665 41.2203C46.5665 41.0632 46.5615 40.9011 46.5615 40.7391C46.5615 40.577 46.5615 40.415 46.5665 40.2628C46.5817 39.6195 46.6323 39.0352 46.7183 38.5048C46.7486 38.3281 46.779 38.1611 46.8144 37.9991V37.9892C46.9661 37.3411 47.1735 36.7911 47.4568 36.3442V36.3344C47.7451 35.8876 48.0941 35.534 48.519 35.2787H48.5241C48.6303 35.2148 48.7416 35.1559 48.8529 35.1068H48.8579C49.121 34.989 49.4042 34.9055 49.7128 34.8515H49.7179C49.819 34.8318 49.9252 34.8171 50.0315 34.8073C50.1225 34.7974 50.2136 34.7925 50.3097 34.7827H50.3249C50.421 34.7778 50.5221 34.7729 50.6233 34.7729C50.7245 34.7729 50.8256 34.7729 50.9217 34.7827H50.9369C51.033 34.7876 51.1241 34.7974 51.2151 34.8073C51.3466 34.822 51.4731 34.8416 51.5945 34.8662C51.6299 34.8711 51.6704 34.8809 51.7058 34.8907C51.7918 34.9104 51.8828 34.93 51.9637 34.9546C51.9991 34.9644 52.0346 34.9742 52.07 34.984C52.1812 35.0184 52.2925 35.0577 52.3937 35.1068H52.3988C52.4898 35.151 52.5809 35.2001 52.6668 35.2492C52.6871 35.259 52.7124 35.2688 52.7326 35.2836H52.7377C52.7377 35.2836 52.7478 35.2934 52.7528 35.2983C53.1626 35.5487 53.5065 35.8876 53.7797 36.3197C53.7847 36.3295 53.7898 36.3344 53.7999 36.3442V36.3639C54.0832 36.8107 54.2956 37.3558 54.4372 37.9991V38.0089C54.4777 38.1709 54.5081 38.3379 54.5384 38.5147C54.5637 38.6767 54.5839 38.8387 54.6042 39.0057C54.6092 39.0548 54.6143 39.1088 54.6193 39.1628C54.6345 39.2905 54.6446 39.4182 54.6547 39.5508C54.6547 39.6048 54.6649 39.6588 54.6649 39.7128C54.675 39.8945 54.6851 40.0811 54.6902 40.2726C54.6902 40.4297 54.6952 40.5918 54.6952 40.7538C54.6952 40.9159 54.6952 41.0779 54.6902 41.2301C54.675 41.8734 54.6244 42.4577 54.5384 42.9881V42.9684Z" fill="#81939B"/>
<path d="M61.1647 17.9546C63.9805 17.8368 65.7577 17.7778 66.4962 17.7778C69.779 17.7778 73.0416 18.1756 74.8373 18.9662C77.4423 20.1103 78.8485 22.1334 78.8485 24.7703C78.8485 28.463 75.414 30.8347 70.0825 31.6302C76.3093 32.1114 79.6832 34.8809 79.6832 39.4133C79.6832 42.227 78.2769 44.7313 75.9299 46.0522C74.0937 47.0637 72.0047 47.4173 67.3106 47.4173H57.1737C56.6983 47.4173 56.6983 46.4057 57.1737 46.4057H57.5379C60.9068 46.4057 60.9523 45.8361 60.8663 39.811V25.5216C60.9523 19.4572 61.357 19.0153 57.7302 19.1037H57.1737C56.6983 19.1037 56.6983 18.0921 57.1737 18.0921L61.1647 17.9595V17.9546ZM65.8588 31.2325C71.6202 31.2325 73.7093 29.6071 73.7093 25.0355C73.7093 22.0892 72.9 20.3755 71.0234 19.4523C70.128 19.0545 68.7623 18.8385 66.6277 18.8385C65.9853 18.8385 66.0713 18.8385 65.4339 18.9269V31.2374H65.8639L65.8588 31.2325ZM65.4289 38.7945V45.4089C65.4289 46.4401 66.8806 46.17 68.8837 46.17C72.1564 46.17 74.9233 44.3483 74.9233 39.4133C74.9233 34.2278 72.8089 32.2489 66.5417 32.2489C65.9448 32.2489 66.3697 32.2489 65.4289 32.2931V38.7995V38.7945Z" fill="#1D343E"/>
</svg>
