<svg width="96" height="96" viewBox="0 0 96 96" fill="none" xmlns="http://www.w3.org/2000/svg">
<path d="M10.2093 59.7425C15.7488 55.4771 24.7504 53.9814 32.5887 56.031C33.3366 56.2249 34.0844 55.7818 34.2783 55.0339C34.4722 54.2861 34.029 53.5383 33.2812 53.3444C24.5288 51.0455 14.7794 52.6797 8.49206 57.5267C3.94969 61.0443 1.54004 65.919 1.54004 71.68C1.54004 72.4556 2.14938 73.0649 2.92491 73.0649H27.3817C28.1572 73.0649 28.7665 72.4556 28.7665 71.68C28.7665 70.9045 28.1572 70.2952 27.3817 70.2952H4.39286C4.75293 66.0298 6.71946 62.4014 10.2093 59.7148V59.7425Z" fill="black"/>
<path d="M25.3044 48.9681C31.7302 48.9681 36.965 43.7333 36.965 37.3076C36.965 30.8818 31.7302 25.647 25.3044 25.647C18.8786 25.647 13.6438 30.8818 13.6438 37.3076C13.6438 43.7333 18.8786 48.9681 25.3044 48.9681ZM25.3044 28.389C30.2068 28.389 34.1952 32.3774 34.1952 37.2799C34.1952 42.1823 30.2068 46.1707 25.3044 46.1707C20.402 46.1707 16.4135 42.1823 16.4135 37.2799C16.4135 32.3774 20.402 28.389 25.3044 28.389Z" fill="black"/>
<path d="M58.2088 51.2671C46.1327 51.2671 33.115 57.6652 33.115 71.7077C33.115 72.4832 33.7243 73.0926 34.4999 73.0926H81.9177C82.6933 73.0926 83.3026 72.4832 83.3026 71.7077C83.3026 57.6652 70.2848 51.2671 58.2088 51.2671ZM58.2088 54.0368C68.5399 54.0368 79.5912 59.1608 80.4498 70.3229H35.9678C36.8264 59.1608 47.8777 54.0368 58.2088 54.0368Z" fill="black"/>
<path d="M58.209 47.5003C64.9948 47.5003 70.5066 41.9885 70.5066 35.2026C70.5066 28.4168 64.9948 22.905 58.209 22.905C51.4231 22.905 45.9114 28.4168 45.9114 35.2026C45.9114 41.9885 51.4231 47.5003 58.209 47.5003ZM58.209 25.6748C63.4715 25.6748 67.7369 29.9401 67.7369 35.2026C67.7369 40.4651 63.4715 44.7305 58.209 44.7305C52.9465 44.7305 48.6811 40.4651 48.6811 35.2026C48.6811 29.9401 52.9465 25.6748 58.209 25.6748Z" fill="black"/>
<path d="M94.2275 37.5872C93.874 37.2455 93.3261 37.2455 92.9726 37.5872L81.4305 48.7441L75.7567 43.2596C75.4032 42.9179 74.8552 42.9179 74.5017 43.2596C74.1482 43.6013 74.1482 44.131 74.5017 44.4727L80.7942 50.5552C80.9709 50.726 81.2007 50.8114 81.4128 50.8114C81.6249 50.8114 81.8724 50.726 82.0315 50.5552L94.1922 38.8003C94.5457 38.4586 94.5457 37.9289 94.1922 37.5872H94.2275Z" fill="black" stroke="black" stroke-linejoin="round"/>
</svg>
