<svg width="96" height="96" viewBox="0 0 96 96" fill="none" xmlns="http://www.w3.org/2000/svg">
<path d="M80.7928 67.1095L73.0099 59.3266C74.6994 57.2216 75.7519 54.5626 75.7519 51.6544C75.7519 44.8409 70.2125 39.3014 63.3989 39.3014C56.5854 39.3014 51.0459 44.8409 51.0459 51.6544C51.0459 58.468 56.5854 64.0074 63.3989 64.0074C66.3071 64.0074 68.9384 62.9549 71.0711 61.2654L78.854 69.0483C79.131 69.3253 79.4911 69.4638 79.8234 69.4638C80.1558 69.4638 80.5436 69.3253 80.7928 69.0483C81.3468 68.4944 81.3468 67.6358 80.7928 67.0818V67.1095ZM53.7879 51.6544C53.7879 46.3642 58.081 42.0711 63.3712 42.0711C68.6614 42.0711 72.9545 46.3642 72.9545 51.6544C72.9545 56.9446 68.6614 61.2377 63.3712 61.2377C58.081 61.2377 53.7879 56.9446 53.7879 51.6544Z" fill="black"/>
<path d="M43.4985 49.6987V30.3105C43.4985 29.535 42.8892 28.9257 42.1136 28.9257C41.3381 28.9257 40.7288 29.535 40.7288 30.3105V49.6987C40.7288 50.4742 41.3381 51.0835 42.1136 51.0835C42.8892 51.0835 43.4985 50.4742 43.4985 49.6987Z" fill="black"/>
<path d="M42.114 59.3649C43.6437 59.3649 44.8837 58.1249 44.8837 56.5952C44.8837 55.0655 43.6437 53.8254 42.114 53.8254C40.5843 53.8254 39.3442 55.0655 39.3442 56.5952C39.3442 58.1249 40.5843 59.3649 42.114 59.3649Z" fill="black"/>
<path d="M68.7999 70.4333C68.0243 70.4333 67.415 71.0426 67.415 71.8181V78.3824C67.415 79.9057 66.1686 81.1521 64.6453 81.1521H20.3295C18.8062 81.1521 17.5598 79.9057 17.5598 78.3824V17.6144C17.5598 16.0911 18.8062 14.8447 20.3295 14.8447H64.6453C66.1686 14.8447 67.415 16.0911 67.415 17.6144V31.1861C67.415 31.9616 68.0243 32.571 68.7999 32.571C69.5754 32.571 70.1847 31.9616 70.1847 31.1861V17.6144C70.1847 14.5677 67.692 12.075 64.6453 12.075H20.3295C17.2828 12.075 14.79 14.5677 14.79 17.6144V78.3824C14.79 81.4291 17.2828 83.9219 20.3295 83.9219H64.6453C67.692 83.9219 70.1847 81.4291 70.1847 78.3824V71.8181C70.1847 71.0426 69.5754 70.4333 68.7999 70.4333Z" fill="black"/>
</svg>
