<svg width="96" height="96" viewBox="0 0 96 96" fill="none" xmlns="http://www.w3.org/2000/svg">
<path d="M6.03569 55.9605C6.39517 55.9605 6.75465 55.8257 7.03549 55.5449L32.1205 29.7858L45.6684 43.6932C46.1964 44.2212 47.14 44.2212 47.668 43.6932L76.2242 14.3619C76.7522 13.8114 76.7522 12.9464 76.2242 12.396C75.6738 11.868 74.8088 11.868 74.2583 12.396L46.6682 40.7275L33.1203 26.8201C32.5923 26.2921 31.6487 26.2921 31.1207 26.8201L5.03588 53.6127C4.5079 54.1631 4.5079 55.0281 5.03588 55.5786C5.31673 55.8257 5.64251 55.9717 6.00199 55.9717H6.02445L6.03569 55.9605Z" fill="black"/>
<path d="M10.1921 63.2175C7.14771 63.2175 4.64258 65.7114 4.64258 68.767V78.4617C4.64258 81.5061 7.13647 84 10.1808 84C13.2252 84 15.7191 81.5061 15.7191 78.4617V68.767C15.7191 65.7227 13.2252 63.2288 10.1808 63.2288L10.1921 63.2175ZM12.9668 78.4505C12.9668 79.9783 11.7198 81.2252 10.1921 81.2252C8.66426 81.2252 7.41732 79.9783 7.41732 78.4505V68.7558C7.41732 67.228 8.66426 65.981 10.1921 65.981C11.7198 65.981 12.9668 67.228 12.9668 68.7558V78.4505Z" fill="black"/>
<path d="M50.7909 50.5907C47.7466 50.5907 45.2527 53.0846 45.2527 56.1289V78.4504C45.2527 81.4948 47.7466 83.9887 50.7909 83.9887C53.8353 83.9887 56.3292 81.4948 56.3292 78.4504V56.1289C56.3292 53.0846 53.8353 50.5907 50.7909 50.5907ZM53.5657 78.4504C53.5657 79.9782 52.3187 81.2252 50.7909 81.2252C49.2631 81.2252 48.0162 79.9782 48.0162 78.4504V56.1289C48.0162 54.6012 49.2631 53.3542 50.7909 53.3542C52.3187 53.3542 53.5657 54.6012 53.5657 56.1289V78.4504Z" fill="black"/>
<path d="M30.4914 46.6028C27.447 46.6028 24.9531 49.0967 24.9531 52.141V78.4505C24.9531 81.4948 27.447 83.9887 30.4914 83.9887C33.5357 83.9887 36.0296 81.4948 36.0296 78.4505V52.141C36.0296 49.0967 33.5357 46.6028 30.4914 46.6028ZM33.2661 78.4505C33.2661 79.9783 32.0192 81.2252 30.4914 81.2252C28.9636 81.2252 27.7166 79.9783 27.7166 78.4505V52.141C27.7166 50.6132 28.9636 49.3663 30.4914 49.3663C32.0192 49.3663 33.2661 50.6132 33.2661 52.141V78.4505Z" fill="black"/>
<path d="M90.9628 76.6643L83.1778 68.8793C84.8629 66.7786 85.9189 64.1162 85.9189 61.2066C85.9189 54.3877 80.3806 48.8495 73.5617 48.8495C66.7428 48.8495 61.2046 54.3877 61.2046 61.2066C61.2046 68.0255 66.7428 73.5638 73.5617 73.5638C76.4713 73.5638 79.1 72.5078 81.2344 70.8227L89.0194 78.6077C89.3002 78.8886 89.6597 79.0234 89.9855 79.0234C90.3113 79.0234 90.7044 78.8886 90.9516 78.6077C91.502 78.0573 91.502 77.1923 90.9516 76.6418V76.6643H90.9628ZM63.9569 61.2066C63.9569 55.9155 68.2482 51.6242 73.5393 51.6242C78.8304 51.6242 83.1217 55.9155 83.1217 61.2066C83.1217 66.4977 78.8304 70.789 73.5393 70.789C68.2482 70.789 63.9569 66.4977 63.9569 61.2066Z" fill="black"/>
<path d="M73.865 40.0086V43.9966C73.865 45.8277 76.6397 45.8277 76.6397 43.9966V40.0086C76.6397 36.9642 74.1458 34.4703 71.1015 34.4703C68.0571 34.4703 65.5632 36.9642 65.5632 40.0086V47.3667C65.5632 49.3438 68.338 49.3438 68.338 47.3667V40.0086C68.338 38.4808 69.5849 37.2338 71.1127 37.2338C72.6405 37.2338 73.8874 38.4808 73.8874 40.0086H73.865Z" fill="black"/>
<path d="M73.865 76.5969V78.4505C73.865 79.9783 72.618 81.2252 71.0903 81.2252C69.5625 81.2252 68.3155 79.9783 68.3155 78.4505V75.8555C68.3155 74.0244 65.5408 74.0244 65.5408 75.8555V78.4505C65.5408 81.4949 68.0347 83.9887 71.079 83.9887C74.1234 83.9887 76.6173 81.4949 76.6173 78.4505V76.5969C76.6173 74.9793 73.8425 74.9793 73.8425 76.5969H73.865Z" fill="black"/>
</svg>
